<mxfile host="app.diagrams.net" modified="2023-11-15T17:04:28.360Z" agent="Mozilla/5.0 (Windows NT 10.0; Win64; x64) AppleWebKit/537.36 (KHTML, like Gecko) Chrome/119.0.0.0 Safari/537.36" etag="BNA_pFM70_3GXv0eW_iu" version="22.1.1" type="github" pages="3">
  <diagram name="Copy of Page-1" id="tC7sDbMbXKMarHyAKdnI">
    <mxGraphModel dx="2353" dy="2430" grid="0" gridSize="12" guides="1" tooltips="1" connect="1" arrows="1" fold="1" page="0" pageScale="1" pageWidth="850" pageHeight="1100" math="0" shadow="0">
      <root>
        <mxCell id="7uaxJ8CPoCi_DnrY-XLY-0" />
        <mxCell id="7uaxJ8CPoCi_DnrY-XLY-1" parent="7uaxJ8CPoCi_DnrY-XLY-0" />
        <mxCell id="qEo4afx9TA5bRtrSpqiY-13" value="" style="rounded=1;whiteSpace=wrap;html=1;fontSize=16;dashed=1;dashPattern=8 8;" parent="7uaxJ8CPoCi_DnrY-XLY-1" vertex="1">
          <mxGeometry x="134.25" y="480" width="622" height="213" as="geometry" />
        </mxCell>
        <mxCell id="qEo4afx9TA5bRtrSpqiY-12" value="" style="rounded=1;whiteSpace=wrap;html=1;fontSize=16;dashed=1;dashPattern=8 8;" parent="7uaxJ8CPoCi_DnrY-XLY-1" vertex="1">
          <mxGeometry x="134.25" y="171" width="622" height="213" as="geometry" />
        </mxCell>
        <mxCell id="qEo4afx9TA5bRtrSpqiY-7" value="" style="rounded=1;whiteSpace=wrap;html=1;fontSize=16;dashed=1;dashPattern=8 8;" parent="7uaxJ8CPoCi_DnrY-XLY-1" vertex="1">
          <mxGeometry x="136.25" y="-131" width="622" height="213" as="geometry" />
        </mxCell>
        <mxCell id="qEo4afx9TA5bRtrSpqiY-3" value="" style="rounded=1;whiteSpace=wrap;html=1;fontSize=16;dashed=1;dashPattern=8 8;" parent="7uaxJ8CPoCi_DnrY-XLY-1" vertex="1">
          <mxGeometry x="136.25" y="-422.5" width="622" height="213" as="geometry" />
        </mxCell>
        <mxCell id="qEo4afx9TA5bRtrSpqiY-0" value="" style="rounded=1;whiteSpace=wrap;html=1;fontSize=16;dashed=1;dashPattern=8 8;" parent="7uaxJ8CPoCi_DnrY-XLY-1" vertex="1">
          <mxGeometry x="136.25" y="-711.5" width="622" height="213" as="geometry" />
        </mxCell>
        <mxCell id="7uaxJ8CPoCi_DnrY-XLY-2" value="" style="rounded=1;whiteSpace=wrap;html=1;fontSize=16;dashed=1;dashPattern=8 8;" parent="7uaxJ8CPoCi_DnrY-XLY-1" vertex="1">
          <mxGeometry x="136" y="-993.5" width="622" height="213" as="geometry" />
        </mxCell>
        <mxCell id="7uaxJ8CPoCi_DnrY-XLY-3" value="" style="whiteSpace=wrap;html=1;aspect=fixed;fillColor=#ffe6cc;strokeColor=#d79b00;" parent="7uaxJ8CPoCi_DnrY-XLY-1" vertex="1">
          <mxGeometry x="179" y="-670" width="118.5" height="118.5" as="geometry" />
        </mxCell>
        <mxCell id="7uaxJ8CPoCi_DnrY-XLY-6" value="" style="endArrow=none;html=1;rounded=0;exitX=0;exitY=0;exitDx=0;exitDy=0;entryX=1;entryY=1;entryDx=0;entryDy=0;strokeColor=#FFB570;" parent="7uaxJ8CPoCi_DnrY-XLY-1" source="7uaxJ8CPoCi_DnrY-XLY-3" target="7uaxJ8CPoCi_DnrY-XLY-3" edge="1">
          <mxGeometry width="50" height="50" relative="1" as="geometry">
            <mxPoint x="477" y="-550" as="sourcePoint" />
            <mxPoint x="527" y="-600" as="targetPoint" />
            <Array as="points" />
          </mxGeometry>
        </mxCell>
        <mxCell id="7uaxJ8CPoCi_DnrY-XLY-9" value="" style="line;strokeWidth=2;direction=south;html=1;" parent="7uaxJ8CPoCi_DnrY-XLY-1" vertex="1">
          <mxGeometry x="300" y="491" height="160" as="geometry" />
        </mxCell>
        <mxCell id="7uaxJ8CPoCi_DnrY-XLY-10" value="" style="line;strokeWidth=2;direction=south;html=1;" parent="7uaxJ8CPoCi_DnrY-XLY-1" vertex="1">
          <mxGeometry x="312" y="503" height="160" as="geometry" />
        </mxCell>
        <mxCell id="7uaxJ8CPoCi_DnrY-XLY-13" value="" style="line;strokeWidth=2;direction=south;html=1;" parent="7uaxJ8CPoCi_DnrY-XLY-1" vertex="1">
          <mxGeometry x="360" y="-516" height="160" as="geometry" />
        </mxCell>
        <mxCell id="7uaxJ8CPoCi_DnrY-XLY-27" value="" style="line;strokeWidth=2;direction=south;html=1;" parent="7uaxJ8CPoCi_DnrY-XLY-1" vertex="1">
          <mxGeometry x="372" y="-504" height="160" as="geometry" />
        </mxCell>
        <mxCell id="7uaxJ8CPoCi_DnrY-XLY-30" value="" style="endArrow=none;html=1;rounded=0;entryX=0.5;entryY=1;entryDx=0;entryDy=0;fillColor=#fff2cc;strokeColor=#d6b656;" parent="7uaxJ8CPoCi_DnrY-XLY-1" target="7uaxJ8CPoCi_DnrY-XLY-31" edge="1">
          <mxGeometry width="50" height="50" relative="1" as="geometry">
            <mxPoint x="464" y="-254" as="sourcePoint" />
            <mxPoint x="403" y="-334" as="targetPoint" />
          </mxGeometry>
        </mxCell>
        <mxCell id="7uaxJ8CPoCi_DnrY-XLY-42" value="" style="whiteSpace=wrap;html=1;aspect=fixed;fillColor=#fad7ac;strokeColor=#b46504;" parent="7uaxJ8CPoCi_DnrY-XLY-1" vertex="1">
          <mxGeometry x="197" y="-103" width="123" height="123" as="geometry" />
        </mxCell>
        <mxCell id="7uaxJ8CPoCi_DnrY-XLY-43" value="" style="whiteSpace=wrap;html=1;aspect=fixed;fillColor=#fad9d5;strokeColor=#ae4132;" parent="7uaxJ8CPoCi_DnrY-XLY-1" vertex="1">
          <mxGeometry x="564" y="-106" width="123" height="123" as="geometry" />
        </mxCell>
        <mxCell id="7uaxJ8CPoCi_DnrY-XLY-44" value="" style="endArrow=none;html=1;rounded=0;exitX=0;exitY=0;exitDx=0;exitDy=0;entryX=1;entryY=1;entryDx=0;entryDy=0;fillColor=#ffe6cc;strokeColor=#d79b00;" parent="7uaxJ8CPoCi_DnrY-XLY-1" source="7uaxJ8CPoCi_DnrY-XLY-42" target="7uaxJ8CPoCi_DnrY-XLY-42" edge="1">
          <mxGeometry width="50" height="50" relative="1" as="geometry">
            <mxPoint x="582" y="50" as="sourcePoint" />
            <mxPoint x="632" as="targetPoint" />
            <Array as="points" />
          </mxGeometry>
        </mxCell>
        <mxCell id="7uaxJ8CPoCi_DnrY-XLY-45" value="" style="endArrow=none;html=1;rounded=0;entryX=0;entryY=0;entryDx=0;entryDy=0;exitX=1;exitY=1;exitDx=0;exitDy=0;" parent="7uaxJ8CPoCi_DnrY-XLY-1" source="7uaxJ8CPoCi_DnrY-XLY-43" target="7uaxJ8CPoCi_DnrY-XLY-43" edge="1">
          <mxGeometry width="50" height="50" relative="1" as="geometry">
            <mxPoint x="763" y="72" as="sourcePoint" />
            <mxPoint x="813" y="22" as="targetPoint" />
          </mxGeometry>
        </mxCell>
        <mxCell id="7uaxJ8CPoCi_DnrY-XLY-47" value="" style="endArrow=none;html=1;rounded=0;entryX=0;entryY=1;entryDx=0;entryDy=0;exitX=0.5;exitY=0;exitDx=0;exitDy=0;fillColor=#cdeb8b;strokeColor=#36393d;" parent="7uaxJ8CPoCi_DnrY-XLY-1" source="7uaxJ8CPoCi_DnrY-XLY-53" target="7uaxJ8CPoCi_DnrY-XLY-62" edge="1">
          <mxGeometry width="50" height="50" relative="1" as="geometry">
            <mxPoint x="430" y="385" as="sourcePoint" />
            <mxPoint x="460" y="325" as="targetPoint" />
          </mxGeometry>
        </mxCell>
        <mxCell id="7uaxJ8CPoCi_DnrY-XLY-48" value="" style="endArrow=none;html=1;rounded=0;entryX=1;entryY=1;entryDx=0;entryDy=0;fillColor=#cdeb8b;strokeColor=#36393d;" parent="7uaxJ8CPoCi_DnrY-XLY-1" source="7uaxJ8CPoCi_DnrY-XLY-60" target="7uaxJ8CPoCi_DnrY-XLY-56" edge="1">
          <mxGeometry width="50" height="50" relative="1" as="geometry">
            <mxPoint x="380" y="325" as="sourcePoint" />
            <mxPoint x="330" y="265" as="targetPoint" />
          </mxGeometry>
        </mxCell>
        <mxCell id="7uaxJ8CPoCi_DnrY-XLY-50" value="" style="endArrow=none;html=1;rounded=0;fillColor=#cdeb8b;strokeColor=#36393d;exitX=0;exitY=0;exitDx=0;exitDy=0;" parent="7uaxJ8CPoCi_DnrY-XLY-1" source="7uaxJ8CPoCi_DnrY-XLY-62" target="7uaxJ8CPoCi_DnrY-XLY-51" edge="1">
          <mxGeometry width="50" height="50" relative="1" as="geometry">
            <mxPoint x="498" y="301" as="sourcePoint" />
            <mxPoint x="420" y="265" as="targetPoint" />
          </mxGeometry>
        </mxCell>
        <mxCell id="7uaxJ8CPoCi_DnrY-XLY-51" value="" style="ellipse;whiteSpace=wrap;html=1;aspect=fixed;fillColor=#f0a30a;strokeColor=#BD7000;fontColor=#000000;" parent="7uaxJ8CPoCi_DnrY-XLY-1" vertex="1">
          <mxGeometry x="437.5" y="194.5" width="36" height="36" as="geometry" />
        </mxCell>
        <mxCell id="7uaxJ8CPoCi_DnrY-XLY-52" value="" style="endArrow=none;html=1;rounded=0;entryX=1;entryY=1;entryDx=0;entryDy=0;exitX=0;exitY=0;exitDx=0;exitDy=0;fillColor=#cdeb8b;strokeColor=#36393d;" parent="7uaxJ8CPoCi_DnrY-XLY-1" source="7uaxJ8CPoCi_DnrY-XLY-54" target="7uaxJ8CPoCi_DnrY-XLY-58" edge="1">
          <mxGeometry width="50" height="50" relative="1" as="geometry">
            <mxPoint x="234" y="303" as="sourcePoint" />
            <mxPoint x="284" y="253" as="targetPoint" />
          </mxGeometry>
        </mxCell>
        <mxCell id="7uaxJ8CPoCi_DnrY-XLY-53" value="" style="ellipse;whiteSpace=wrap;html=1;aspect=fixed;fillColor=#f0a30a;strokeColor=#BD7000;fontColor=#000000;" parent="7uaxJ8CPoCi_DnrY-XLY-1" vertex="1">
          <mxGeometry x="437.5" y="342" width="36" height="36" as="geometry" />
        </mxCell>
        <mxCell id="7uaxJ8CPoCi_DnrY-XLY-54" value="" style="ellipse;whiteSpace=wrap;html=1;aspect=fixed;fillColor=#f0a30a;strokeColor=#BD7000;fontColor=#000000;" parent="7uaxJ8CPoCi_DnrY-XLY-1" vertex="1">
          <mxGeometry x="252" y="267" width="36" height="36" as="geometry" />
        </mxCell>
        <mxCell id="7uaxJ8CPoCi_DnrY-XLY-55" value="" style="ellipse;whiteSpace=wrap;html=1;aspect=fixed;fillColor=#f0a30a;strokeColor=#BD7000;fontColor=#000000;" parent="7uaxJ8CPoCi_DnrY-XLY-1" vertex="1">
          <mxGeometry x="566" y="342" width="36" height="36" as="geometry" />
        </mxCell>
        <mxCell id="7uaxJ8CPoCi_DnrY-XLY-56" value="" style="ellipse;whiteSpace=wrap;html=1;aspect=fixed;fillColor=#f0a30a;strokeColor=#BD7000;fontColor=#000000;" parent="7uaxJ8CPoCi_DnrY-XLY-1" vertex="1">
          <mxGeometry x="297.5" y="194.5" width="36" height="36" as="geometry" />
        </mxCell>
        <mxCell id="7uaxJ8CPoCi_DnrY-XLY-57" value="" style="endArrow=none;html=1;rounded=0;fillColor=#cdeb8b;strokeColor=#36393d;" parent="7uaxJ8CPoCi_DnrY-XLY-1" source="7uaxJ8CPoCi_DnrY-XLY-60" target="7uaxJ8CPoCi_DnrY-XLY-58" edge="1">
          <mxGeometry width="50" height="50" relative="1" as="geometry">
            <mxPoint x="420" y="265" as="sourcePoint" />
            <mxPoint x="318" y="409" as="targetPoint" />
            <Array as="points" />
          </mxGeometry>
        </mxCell>
        <mxCell id="7uaxJ8CPoCi_DnrY-XLY-58" value="" style="ellipse;whiteSpace=wrap;html=1;aspect=fixed;fillColor=#f0a30a;strokeColor=#BD7000;fontColor=#000000;" parent="7uaxJ8CPoCi_DnrY-XLY-1" vertex="1">
          <mxGeometry x="300" y="342" width="36" height="36" as="geometry" />
        </mxCell>
        <mxCell id="7uaxJ8CPoCi_DnrY-XLY-60" value="" style="ellipse;whiteSpace=wrap;html=1;aspect=fixed;fillColor=#f0a30a;strokeColor=#BD7000;fontColor=#000000;" parent="7uaxJ8CPoCi_DnrY-XLY-1" vertex="1">
          <mxGeometry x="369" y="267" width="36" height="36" as="geometry" />
        </mxCell>
        <mxCell id="7uaxJ8CPoCi_DnrY-XLY-61" value="" style="endArrow=none;html=1;rounded=0;exitX=0;exitY=0;exitDx=0;exitDy=0;fillColor=#cdeb8b;strokeColor=#36393d;" parent="7uaxJ8CPoCi_DnrY-XLY-1" source="7uaxJ8CPoCi_DnrY-XLY-55" target="7uaxJ8CPoCi_DnrY-XLY-62" edge="1">
          <mxGeometry width="50" height="50" relative="1" as="geometry">
            <mxPoint x="500" y="385" as="sourcePoint" />
            <mxPoint x="441" y="251" as="targetPoint" />
          </mxGeometry>
        </mxCell>
        <mxCell id="7uaxJ8CPoCi_DnrY-XLY-62" value="" style="ellipse;whiteSpace=wrap;html=1;aspect=fixed;fillColor=#f0a30a;strokeColor=#BD7000;fontColor=#000000;" parent="7uaxJ8CPoCi_DnrY-XLY-1" vertex="1">
          <mxGeometry x="494" y="267" width="36" height="36" as="geometry" />
        </mxCell>
        <mxCell id="7uaxJ8CPoCi_DnrY-XLY-63" value="" style="ellipse;whiteSpace=wrap;html=1;aspect=fixed;fillColor=#f0a30a;strokeColor=#BD7000;fontColor=#000000;" parent="7uaxJ8CPoCi_DnrY-XLY-1" vertex="1">
          <mxGeometry x="620" y="267" width="36" height="36" as="geometry" />
        </mxCell>
        <mxCell id="7uaxJ8CPoCi_DnrY-XLY-64" value="" style="endArrow=none;html=1;rounded=0;entryX=0.5;entryY=1;entryDx=0;entryDy=0;exitX=1;exitY=0;exitDx=0;exitDy=0;fillColor=#cdeb8b;strokeColor=#36393d;" parent="7uaxJ8CPoCi_DnrY-XLY-1" source="7uaxJ8CPoCi_DnrY-XLY-55" target="7uaxJ8CPoCi_DnrY-XLY-63" edge="1">
          <mxGeometry width="50" height="50" relative="1" as="geometry">
            <mxPoint x="234" y="303" as="sourcePoint" />
            <mxPoint x="284" y="253" as="targetPoint" />
          </mxGeometry>
        </mxCell>
        <mxCell id="7uaxJ8CPoCi_DnrY-XLY-112" value="Frequency Matrix" style="text;strokeColor=none;fillColor=none;html=1;align=center;verticalAlign=middle;whiteSpace=wrap;rounded=0;fontSize=16;" parent="7uaxJ8CPoCi_DnrY-XLY-1" vertex="1">
          <mxGeometry x="490" y="20" width="271" height="30" as="geometry" />
        </mxCell>
        <mxCell id="7uaxJ8CPoCi_DnrY-XLY-113" value="Distance Matrix" style="text;strokeColor=none;fillColor=none;html=1;align=center;verticalAlign=middle;whiteSpace=wrap;rounded=0;fontSize=16;" parent="7uaxJ8CPoCi_DnrY-XLY-1" vertex="1">
          <mxGeometry x="118" y="20" width="271" height="30" as="geometry" />
        </mxCell>
        <mxCell id="7uaxJ8CPoCi_DnrY-XLY-114" value="" style="group" parent="7uaxJ8CPoCi_DnrY-XLY-1" vertex="1" connectable="0">
          <mxGeometry x="157.75" y="-979.5" width="601.25" height="187.5" as="geometry" />
        </mxCell>
        <mxCell id="7uaxJ8CPoCi_DnrY-XLY-70" value="" style="endArrow=classic;html=1;rounded=0;fontSize=12;startSize=8;endSize=8;curved=1;entryX=0.49;entryY=0.011;entryDx=0;entryDy=0;entryPerimeter=0;" parent="7uaxJ8CPoCi_DnrY-XLY-114" edge="1" target="qEo4afx9TA5bRtrSpqiY-0">
          <mxGeometry width="50" height="50" relative="1" as="geometry">
            <mxPoint x="283.2800000000001" y="158.5" as="sourcePoint" />
            <mxPoint x="284.0628571428573" y="227" as="targetPoint" />
          </mxGeometry>
        </mxCell>
        <mxCell id="7uaxJ8CPoCi_DnrY-XLY-71" value="" style="endArrow=classic;html=1;rounded=0;fontSize=12;startSize=8;endSize=8;curved=1;entryX=0.575;entryY=0.003;entryDx=0;entryDy=0;entryPerimeter=0;" parent="7uaxJ8CPoCi_DnrY-XLY-114" edge="1" target="qEo4afx9TA5bRtrSpqiY-0">
          <mxGeometry width="50" height="50" relative="1" as="geometry">
            <mxPoint x="505.23" y="153.5" as="sourcePoint" />
            <mxPoint x="378.25400000000013" y="232.361" as="targetPoint" />
          </mxGeometry>
        </mxCell>
        <mxCell id="7uaxJ8CPoCi_DnrY-XLY-115" value="" style="endArrow=none;html=1;rounded=0;" parent="7uaxJ8CPoCi_DnrY-XLY-114" source="7uaxJ8CPoCi_DnrY-XLY-121" edge="1">
          <mxGeometry width="50" height="50" relative="1" as="geometry">
            <mxPoint x="170.30224525043178" y="123.42964824120604" as="sourcePoint" />
            <mxPoint x="87.2279792746114" y="10.3643216080402" as="targetPoint" />
          </mxGeometry>
        </mxCell>
        <mxCell id="7uaxJ8CPoCi_DnrY-XLY-116" value="" style="endArrow=none;html=1;rounded=0;" parent="7uaxJ8CPoCi_DnrY-XLY-114" source="7uaxJ8CPoCi_DnrY-XLY-119" edge="1">
          <mxGeometry width="50" height="50" relative="1" as="geometry">
            <mxPoint x="97.61226252158895" y="123.42964824120604" as="sourcePoint" />
            <mxPoint x="128.7651122625216" y="66.89698492462311" as="targetPoint" />
          </mxGeometry>
        </mxCell>
        <mxCell id="7uaxJ8CPoCi_DnrY-XLY-117" value="" style="endArrow=none;html=1;rounded=0;" parent="7uaxJ8CPoCi_DnrY-XLY-114" target="7uaxJ8CPoCi_DnrY-XLY-118" edge="1">
          <mxGeometry width="50" height="50" relative="1" as="geometry">
            <mxPoint x="45.69084628670121" y="66.89698492462311" as="sourcePoint" />
            <mxPoint x="76.84369602763385" y="123.42964824120604" as="targetPoint" />
          </mxGeometry>
        </mxCell>
        <mxCell id="7uaxJ8CPoCi_DnrY-XLY-118" value="&lt;b&gt;&lt;br&gt;&lt;/b&gt;" style="ellipse;whiteSpace=wrap;html=1;aspect=fixed;fontSize=20;fillColor=#f0a30a;strokeColor=#BD7000;fontColor=#000000;" parent="7uaxJ8CPoCi_DnrY-XLY-114" vertex="1">
          <mxGeometry x="31.15284974093264" y="56.061557788944725" width="25.897343862167983" height="25.897343862167983" as="geometry" />
        </mxCell>
        <mxCell id="7uaxJ8CPoCi_DnrY-XLY-119" value="&lt;b&gt;&lt;br&gt;&lt;/b&gt;" style="ellipse;whiteSpace=wrap;html=1;aspect=fixed;fontSize=20;fillColor=#f0a30a;strokeColor=#BD7000;fontColor=#000000;" parent="7uaxJ8CPoCi_DnrY-XLY-114" vertex="1">
          <mxGeometry x="105.919689119171" y="53.70603015075377" width="25.897343862167983" height="25.897343862167983" as="geometry" />
        </mxCell>
        <mxCell id="7uaxJ8CPoCi_DnrY-XLY-120" value="" style="endArrow=none;html=1;rounded=0;exitX=0.5;exitY=0;exitDx=0;exitDy=0;" parent="7uaxJ8CPoCi_DnrY-XLY-114" source="7uaxJ8CPoCi_DnrY-XLY-119" target="7uaxJ8CPoCi_DnrY-XLY-121" edge="1">
          <mxGeometry width="50" height="50" relative="1" as="geometry">
            <mxPoint x="116.30397236614853" y="55.59045226130653" as="sourcePoint" />
            <mxPoint x="87.2279792746114" y="10.3643216080402" as="targetPoint" />
          </mxGeometry>
        </mxCell>
        <mxCell id="7uaxJ8CPoCi_DnrY-XLY-121" value="&lt;b&gt;&lt;br&gt;&lt;/b&gt;" style="ellipse;whiteSpace=wrap;html=1;aspect=fixed;fontSize=20;fillColor=#f0a30a;strokeColor=#BD7000;fontColor=#000000;" parent="7uaxJ8CPoCi_DnrY-XLY-114" vertex="1">
          <mxGeometry x="65.42098445595855" width="25.897343862167983" height="25.897343862167983" as="geometry" />
        </mxCell>
        <mxCell id="7uaxJ8CPoCi_DnrY-XLY-122" value="" style="endArrow=none;html=1;rounded=0;fontSize=12;startSize=8;endSize=8;curved=1;exitX=1;exitY=1;exitDx=0;exitDy=0;entryX=0.5;entryY=0;entryDx=0;entryDy=0;" parent="7uaxJ8CPoCi_DnrY-XLY-114" source="7uaxJ8CPoCi_DnrY-XLY-119" target="7uaxJ8CPoCi_DnrY-XLY-128" edge="1">
          <mxGeometry width="50" height="50" relative="1" as="geometry">
            <mxPoint x="106.95811744386874" y="80.08793969849246" as="sourcePoint" />
            <mxPoint x="166.14853195164076" y="121.54522613065326" as="targetPoint" />
          </mxGeometry>
        </mxCell>
        <mxCell id="7uaxJ8CPoCi_DnrY-XLY-123" value="" style="ellipse;whiteSpace=wrap;html=1;aspect=fixed;fontSize=20;fillColor=#ffe6cc;strokeColor=#d79b00;" parent="7uaxJ8CPoCi_DnrY-XLY-114" vertex="1">
          <mxGeometry y="114.9497487437186" width="21.581119885139984" height="21.581119885139984" as="geometry" />
        </mxCell>
        <mxCell id="7uaxJ8CPoCi_DnrY-XLY-124" value="" style="ellipse;whiteSpace=wrap;html=1;aspect=fixed;fontSize=20;fillColor=#ffe6cc;strokeColor=#d79b00;" parent="7uaxJ8CPoCi_DnrY-XLY-114" vertex="1">
          <mxGeometry x="52.9598445595855" y="114.9497487437186" width="21.581119885139984" height="21.581119885139984" as="geometry" />
        </mxCell>
        <mxCell id="7uaxJ8CPoCi_DnrY-XLY-125" value="" style="endArrow=none;html=1;rounded=0;entryX=0.5;entryY=0;entryDx=0;entryDy=0;" parent="7uaxJ8CPoCi_DnrY-XLY-114" source="7uaxJ8CPoCi_DnrY-XLY-118" target="7uaxJ8CPoCi_DnrY-XLY-124" edge="1">
          <mxGeometry width="50" height="50" relative="1" as="geometry">
            <mxPoint x="45.69084628670121" y="66.89698492462311" as="sourcePoint" />
            <mxPoint x="76.84369602763385" y="123.42964824120604" as="targetPoint" />
          </mxGeometry>
        </mxCell>
        <mxCell id="7uaxJ8CPoCi_DnrY-XLY-126" value="" style="endArrow=none;html=1;rounded=0;" parent="7uaxJ8CPoCi_DnrY-XLY-114" target="7uaxJ8CPoCi_DnrY-XLY-127" edge="1">
          <mxGeometry width="50" height="50" relative="1" as="geometry">
            <mxPoint x="97.61226252158895" y="123.42964824120604" as="sourcePoint" />
            <mxPoint x="119.4192573402418" y="84.79899497487436" as="targetPoint" />
          </mxGeometry>
        </mxCell>
        <mxCell id="7uaxJ8CPoCi_DnrY-XLY-127" value="" style="ellipse;whiteSpace=wrap;html=1;aspect=fixed;fontSize=20;fillColor=#ffe6cc;strokeColor=#d79b00;" parent="7uaxJ8CPoCi_DnrY-XLY-114" vertex="1">
          <mxGeometry x="86.18955094991365" y="114.9497487437186" width="21.581119885139984" height="21.581119885139984" as="geometry" />
        </mxCell>
        <mxCell id="7uaxJ8CPoCi_DnrY-XLY-128" value="" style="ellipse;whiteSpace=wrap;html=1;aspect=fixed;fontSize=20;fillColor=#ffe6cc;strokeColor=#d79b00;" parent="7uaxJ8CPoCi_DnrY-XLY-114" vertex="1">
          <mxGeometry x="149.01446459412782" y="114.9497487437186" width="21.581119885139984" height="21.581119885139984" as="geometry" />
        </mxCell>
        <mxCell id="7uaxJ8CPoCi_DnrY-XLY-129" value="" style="endArrow=none;html=1;rounded=0;" parent="7uaxJ8CPoCi_DnrY-XLY-114" source="7uaxJ8CPoCi_DnrY-XLY-127" target="7uaxJ8CPoCi_DnrY-XLY-119" edge="1">
          <mxGeometry width="50" height="50" relative="1" as="geometry">
            <mxPoint x="97.61226252158895" y="123.42964824120604" as="sourcePoint" />
            <mxPoint x="128.7651122625216" y="66.89698492462311" as="targetPoint" />
          </mxGeometry>
        </mxCell>
        <mxCell id="7uaxJ8CPoCi_DnrY-XLY-130" value="" style="endArrow=none;html=1;rounded=0;fontSize=12;startSize=8;endSize=8;curved=1;entryX=0;entryY=1;entryDx=0;entryDy=0;exitX=0.5;exitY=0;exitDx=0;exitDy=0;" parent="7uaxJ8CPoCi_DnrY-XLY-114" source="7uaxJ8CPoCi_DnrY-XLY-118" target="7uaxJ8CPoCi_DnrY-XLY-121" edge="1">
          <mxGeometry width="50" height="50" relative="1" as="geometry">
            <mxPoint x="74.76683937823834" y="71.60804020100502" as="sourcePoint" />
            <mxPoint x="126.68825561312609" y="24.497487437185928" as="targetPoint" />
          </mxGeometry>
        </mxCell>
        <mxCell id="7uaxJ8CPoCi_DnrY-XLY-131" value="" style="endArrow=none;html=1;rounded=0;fontSize=12;startSize=8;endSize=8;curved=1;entryX=0;entryY=1;entryDx=0;entryDy=0;exitX=0.5;exitY=0;exitDx=0;exitDy=0;" parent="7uaxJ8CPoCi_DnrY-XLY-114" target="7uaxJ8CPoCi_DnrY-XLY-118" edge="1">
          <mxGeometry width="50" height="50" relative="1" as="geometry">
            <mxPoint x="12.980354058721934" y="114.9497487437186" as="sourcePoint" />
            <mxPoint x="148.4952504317789" y="17.902010050251256" as="targetPoint" />
          </mxGeometry>
        </mxCell>
        <mxCell id="7uaxJ8CPoCi_DnrY-XLY-132" value="" style="endArrow=none;html=1;rounded=0;" parent="7uaxJ8CPoCi_DnrY-XLY-114" source="7uaxJ8CPoCi_DnrY-XLY-138" edge="1">
          <mxGeometry width="50" height="50" relative="1" as="geometry">
            <mxPoint x="394.60276338514683" y="123.42964824120604" as="sourcePoint" />
            <mxPoint x="311.5284974093264" y="10.3643216080402" as="targetPoint" />
          </mxGeometry>
        </mxCell>
        <mxCell id="7uaxJ8CPoCi_DnrY-XLY-133" value="" style="endArrow=none;html=1;rounded=0;" parent="7uaxJ8CPoCi_DnrY-XLY-114" source="7uaxJ8CPoCi_DnrY-XLY-136" edge="1">
          <mxGeometry width="50" height="50" relative="1" as="geometry">
            <mxPoint x="321.91278065630394" y="123.42964824120604" as="sourcePoint" />
            <mxPoint x="353.06563039723665" y="66.89698492462311" as="targetPoint" />
          </mxGeometry>
        </mxCell>
        <mxCell id="7uaxJ8CPoCi_DnrY-XLY-134" value="" style="endArrow=none;html=1;rounded=0;" parent="7uaxJ8CPoCi_DnrY-XLY-114" target="7uaxJ8CPoCi_DnrY-XLY-135" edge="1">
          <mxGeometry width="50" height="50" relative="1" as="geometry">
            <mxPoint x="269.9913644214162" y="66.89698492462311" as="sourcePoint" />
            <mxPoint x="301.14421416234893" y="123.42964824120604" as="targetPoint" />
          </mxGeometry>
        </mxCell>
        <mxCell id="7uaxJ8CPoCi_DnrY-XLY-135" value="&lt;b&gt;&lt;br&gt;&lt;/b&gt;" style="ellipse;whiteSpace=wrap;html=1;aspect=fixed;fontSize=20;fillColor=#f0a30a;strokeColor=#BD7000;fontColor=#000000;" parent="7uaxJ8CPoCi_DnrY-XLY-114" vertex="1">
          <mxGeometry x="255.45336787564767" y="56.061557788944725" width="25.897343862167983" height="25.897343862167983" as="geometry" />
        </mxCell>
        <mxCell id="7uaxJ8CPoCi_DnrY-XLY-136" value="&lt;b&gt;&lt;br&gt;&lt;/b&gt;" style="ellipse;whiteSpace=wrap;html=1;aspect=fixed;fontSize=20;fillColor=#f0a30a;strokeColor=#BD7000;fontColor=#000000;" parent="7uaxJ8CPoCi_DnrY-XLY-114" vertex="1">
          <mxGeometry x="330.22020725388603" y="53.70603015075377" width="25.897343862167983" height="25.897343862167983" as="geometry" />
        </mxCell>
        <mxCell id="7uaxJ8CPoCi_DnrY-XLY-137" value="" style="endArrow=none;html=1;rounded=0;exitX=0.5;exitY=0;exitDx=0;exitDy=0;" parent="7uaxJ8CPoCi_DnrY-XLY-114" source="7uaxJ8CPoCi_DnrY-XLY-136" target="7uaxJ8CPoCi_DnrY-XLY-138" edge="1">
          <mxGeometry width="50" height="50" relative="1" as="geometry">
            <mxPoint x="340.60449050086356" y="55.59045226130653" as="sourcePoint" />
            <mxPoint x="311.5284974093264" y="10.3643216080402" as="targetPoint" />
          </mxGeometry>
        </mxCell>
        <mxCell id="7uaxJ8CPoCi_DnrY-XLY-138" value="&lt;b&gt;&lt;br&gt;&lt;/b&gt;" style="ellipse;whiteSpace=wrap;html=1;aspect=fixed;fontSize=20;fillColor=#f0a30a;strokeColor=#BD7000;fontColor=#000000;" parent="7uaxJ8CPoCi_DnrY-XLY-114" vertex="1">
          <mxGeometry x="289.7215025906736" width="25.897343862167983" height="25.897343862167983" as="geometry" />
        </mxCell>
        <mxCell id="7uaxJ8CPoCi_DnrY-XLY-139" value="" style="endArrow=none;html=1;rounded=0;fontSize=12;startSize=8;endSize=8;curved=1;exitX=1;exitY=1;exitDx=0;exitDy=0;entryX=0.5;entryY=0;entryDx=0;entryDy=0;" parent="7uaxJ8CPoCi_DnrY-XLY-114" source="7uaxJ8CPoCi_DnrY-XLY-136" target="7uaxJ8CPoCi_DnrY-XLY-144" edge="1">
          <mxGeometry width="50" height="50" relative="1" as="geometry">
            <mxPoint x="331.2586355785837" y="80.08793969849246" as="sourcePoint" />
            <mxPoint x="390.4490500863558" y="121.54522613065326" as="targetPoint" />
          </mxGeometry>
        </mxCell>
        <mxCell id="7uaxJ8CPoCi_DnrY-XLY-140" value="" style="ellipse;whiteSpace=wrap;html=1;aspect=fixed;fontSize=20;fillColor=#ffe6cc;strokeColor=#d79b00;" parent="7uaxJ8CPoCi_DnrY-XLY-114" vertex="1">
          <mxGeometry x="224.30051813471505" y="114.9497487437186" width="21.581119885139984" height="21.581119885139984" as="geometry" />
        </mxCell>
        <mxCell id="7uaxJ8CPoCi_DnrY-XLY-141" value="" style="ellipse;whiteSpace=wrap;html=1;aspect=fixed;fontSize=20;fillColor=#ffe6cc;strokeColor=#d79b00;" parent="7uaxJ8CPoCi_DnrY-XLY-114" vertex="1">
          <mxGeometry x="277.2603626943005" y="114.9497487437186" width="21.581119885139984" height="21.581119885139984" as="geometry" />
        </mxCell>
        <mxCell id="7uaxJ8CPoCi_DnrY-XLY-142" value="" style="endArrow=none;html=1;rounded=0;" parent="7uaxJ8CPoCi_DnrY-XLY-114" target="7uaxJ8CPoCi_DnrY-XLY-143" edge="1">
          <mxGeometry width="50" height="50" relative="1" as="geometry">
            <mxPoint x="321.91278065630394" y="123.42964824120604" as="sourcePoint" />
            <mxPoint x="343.7197754749568" y="84.79899497487436" as="targetPoint" />
          </mxGeometry>
        </mxCell>
        <mxCell id="7uaxJ8CPoCi_DnrY-XLY-143" value="" style="ellipse;whiteSpace=wrap;html=1;aspect=fixed;fontSize=20;fillColor=#ffe6cc;strokeColor=#d79b00;" parent="7uaxJ8CPoCi_DnrY-XLY-114" vertex="1">
          <mxGeometry x="310.4900690846287" y="114.9497487437186" width="21.581119885139984" height="21.581119885139984" as="geometry" />
        </mxCell>
        <mxCell id="7uaxJ8CPoCi_DnrY-XLY-144" value="" style="ellipse;whiteSpace=wrap;html=1;aspect=fixed;fontSize=20;fillColor=#ffe6cc;strokeColor=#d79b00;" parent="7uaxJ8CPoCi_DnrY-XLY-114" vertex="1">
          <mxGeometry x="373.31498272884284" y="114.9497487437186" width="21.581119885139984" height="21.581119885139984" as="geometry" />
        </mxCell>
        <mxCell id="7uaxJ8CPoCi_DnrY-XLY-145" value="" style="endArrow=none;html=1;rounded=0;entryX=0.5;entryY=0;entryDx=0;entryDy=0;" parent="7uaxJ8CPoCi_DnrY-XLY-114" source="7uaxJ8CPoCi_DnrY-XLY-135" target="7uaxJ8CPoCi_DnrY-XLY-141" edge="1">
          <mxGeometry width="50" height="50" relative="1" as="geometry">
            <mxPoint x="269.9913644214162" y="66.89698492462311" as="sourcePoint" />
            <mxPoint x="301.14421416234893" y="123.42964824120604" as="targetPoint" />
          </mxGeometry>
        </mxCell>
        <mxCell id="7uaxJ8CPoCi_DnrY-XLY-146" value="" style="endArrow=none;html=1;rounded=0;fontSize=12;startSize=8;endSize=8;curved=1;entryX=0;entryY=1;entryDx=0;entryDy=0;exitX=0.5;exitY=0;exitDx=0;exitDy=0;" parent="7uaxJ8CPoCi_DnrY-XLY-114" source="7uaxJ8CPoCi_DnrY-XLY-135" target="7uaxJ8CPoCi_DnrY-XLY-138" edge="1">
          <mxGeometry width="50" height="50" relative="1" as="geometry">
            <mxPoint x="299.0673575129534" y="71.60804020100502" as="sourcePoint" />
            <mxPoint x="350.9887737478411" y="24.497487437185928" as="targetPoint" />
          </mxGeometry>
        </mxCell>
        <mxCell id="7uaxJ8CPoCi_DnrY-XLY-147" value="" style="endArrow=none;html=1;rounded=0;" parent="7uaxJ8CPoCi_DnrY-XLY-114" source="7uaxJ8CPoCi_DnrY-XLY-143" target="7uaxJ8CPoCi_DnrY-XLY-136" edge="1">
          <mxGeometry width="50" height="50" relative="1" as="geometry">
            <mxPoint x="321.91278065630394" y="123.42964824120604" as="sourcePoint" />
            <mxPoint x="353.06563039723665" y="66.89698492462311" as="targetPoint" />
          </mxGeometry>
        </mxCell>
        <mxCell id="7uaxJ8CPoCi_DnrY-XLY-148" value="" style="endArrow=none;html=1;rounded=0;fontSize=12;startSize=8;endSize=8;curved=1;entryX=0;entryY=1;entryDx=0;entryDy=0;exitX=0.5;exitY=0;exitDx=0;exitDy=0;" parent="7uaxJ8CPoCi_DnrY-XLY-114" source="7uaxJ8CPoCi_DnrY-XLY-140" target="7uaxJ8CPoCi_DnrY-XLY-135" edge="1">
          <mxGeometry width="50" height="50" relative="1" as="geometry">
            <mxPoint x="320.87435233160625" y="65.01256281407035" as="sourcePoint" />
            <mxPoint x="372.79576856649396" y="17.902010050251256" as="targetPoint" />
          </mxGeometry>
        </mxCell>
        <mxCell id="7uaxJ8CPoCi_DnrY-XLY-149" value="" style="endArrow=none;html=1;rounded=0;" parent="7uaxJ8CPoCi_DnrY-XLY-114" source="7uaxJ8CPoCi_DnrY-XLY-155" edge="1">
          <mxGeometry width="50" height="50" relative="1" as="geometry">
            <mxPoint x="593.9810017271157" y="123.42964824120604" as="sourcePoint" />
            <mxPoint x="510.90673575129534" y="10.3643216080402" as="targetPoint" />
          </mxGeometry>
        </mxCell>
        <mxCell id="7uaxJ8CPoCi_DnrY-XLY-150" value="" style="endArrow=none;html=1;rounded=0;" parent="7uaxJ8CPoCi_DnrY-XLY-114" source="7uaxJ8CPoCi_DnrY-XLY-153" edge="1">
          <mxGeometry width="50" height="50" relative="1" as="geometry">
            <mxPoint x="521.2910189982729" y="123.42964824120604" as="sourcePoint" />
            <mxPoint x="552.4438687392055" y="66.89698492462311" as="targetPoint" />
          </mxGeometry>
        </mxCell>
        <mxCell id="7uaxJ8CPoCi_DnrY-XLY-151" value="" style="endArrow=none;html=1;rounded=0;" parent="7uaxJ8CPoCi_DnrY-XLY-114" target="7uaxJ8CPoCi_DnrY-XLY-152" edge="1">
          <mxGeometry width="50" height="50" relative="1" as="geometry">
            <mxPoint x="469.36960276338516" y="66.89698492462311" as="sourcePoint" />
            <mxPoint x="500.5224525043178" y="123.42964824120604" as="targetPoint" />
          </mxGeometry>
        </mxCell>
        <mxCell id="7uaxJ8CPoCi_DnrY-XLY-152" value="&lt;b&gt;&lt;br&gt;&lt;/b&gt;" style="ellipse;whiteSpace=wrap;html=1;aspect=fixed;fontSize=20;fillColor=#f0a30a;strokeColor=#BD7000;fontColor=#000000;" parent="7uaxJ8CPoCi_DnrY-XLY-114" vertex="1">
          <mxGeometry x="454.8316062176166" y="56.061557788944725" width="25.897343862167983" height="25.897343862167983" as="geometry" />
        </mxCell>
        <mxCell id="7uaxJ8CPoCi_DnrY-XLY-153" value="&lt;b&gt;&lt;br&gt;&lt;/b&gt;" style="ellipse;whiteSpace=wrap;html=1;aspect=fixed;fontSize=20;fillColor=#f0a30a;strokeColor=#BD7000;fontColor=#000000;" parent="7uaxJ8CPoCi_DnrY-XLY-114" vertex="1">
          <mxGeometry x="529.5984455958549" y="53.70603015075377" width="25.897343862167983" height="25.897343862167983" as="geometry" />
        </mxCell>
        <mxCell id="7uaxJ8CPoCi_DnrY-XLY-154" value="" style="endArrow=none;html=1;rounded=0;exitX=0.5;exitY=0;exitDx=0;exitDy=0;" parent="7uaxJ8CPoCi_DnrY-XLY-114" source="7uaxJ8CPoCi_DnrY-XLY-153" target="7uaxJ8CPoCi_DnrY-XLY-155" edge="1">
          <mxGeometry width="50" height="50" relative="1" as="geometry">
            <mxPoint x="539.9827288428324" y="55.59045226130653" as="sourcePoint" />
            <mxPoint x="510.90673575129534" y="10.3643216080402" as="targetPoint" />
          </mxGeometry>
        </mxCell>
        <mxCell id="7uaxJ8CPoCi_DnrY-XLY-155" value="&lt;b&gt;&lt;br&gt;&lt;/b&gt;" style="ellipse;whiteSpace=wrap;html=1;aspect=fixed;fontSize=20;fillColor=#f0a30a;strokeColor=#BD7000;fontColor=#000000;" parent="7uaxJ8CPoCi_DnrY-XLY-114" vertex="1">
          <mxGeometry x="489.0997409326425" width="25.897343862167983" height="25.897343862167983" as="geometry" />
        </mxCell>
        <mxCell id="7uaxJ8CPoCi_DnrY-XLY-156" value="" style="endArrow=none;html=1;rounded=0;fontSize=12;startSize=8;endSize=8;curved=1;exitX=1;exitY=1;exitDx=0;exitDy=0;entryX=0.5;entryY=0;entryDx=0;entryDy=0;" parent="7uaxJ8CPoCi_DnrY-XLY-114" source="7uaxJ8CPoCi_DnrY-XLY-153" target="7uaxJ8CPoCi_DnrY-XLY-161" edge="1">
          <mxGeometry width="50" height="50" relative="1" as="geometry">
            <mxPoint x="530.6368739205527" y="80.08793969849246" as="sourcePoint" />
            <mxPoint x="589.8272884283248" y="121.54522613065326" as="targetPoint" />
          </mxGeometry>
        </mxCell>
        <mxCell id="7uaxJ8CPoCi_DnrY-XLY-157" value="" style="ellipse;whiteSpace=wrap;html=1;aspect=fixed;fontSize=20;fillColor=#ffe6cc;strokeColor=#d79b00;" parent="7uaxJ8CPoCi_DnrY-XLY-114" vertex="1">
          <mxGeometry x="423.678756476684" y="114.9497487437186" width="21.581119885139984" height="21.581119885139984" as="geometry" />
        </mxCell>
        <mxCell id="7uaxJ8CPoCi_DnrY-XLY-158" value="" style="ellipse;whiteSpace=wrap;html=1;aspect=fixed;fontSize=20;fillColor=#ffe6cc;strokeColor=#d79b00;" parent="7uaxJ8CPoCi_DnrY-XLY-114" vertex="1">
          <mxGeometry x="476.63860103626945" y="114.9497487437186" width="21.581119885139984" height="21.581119885139984" as="geometry" />
        </mxCell>
        <mxCell id="7uaxJ8CPoCi_DnrY-XLY-159" value="" style="endArrow=none;html=1;rounded=0;" parent="7uaxJ8CPoCi_DnrY-XLY-114" target="7uaxJ8CPoCi_DnrY-XLY-160" edge="1">
          <mxGeometry width="50" height="50" relative="1" as="geometry">
            <mxPoint x="521.2910189982729" y="123.42964824120604" as="sourcePoint" />
            <mxPoint x="543.0980138169258" y="84.79899497487436" as="targetPoint" />
          </mxGeometry>
        </mxCell>
        <mxCell id="7uaxJ8CPoCi_DnrY-XLY-160" value="" style="ellipse;whiteSpace=wrap;html=1;aspect=fixed;fontSize=20;fillColor=#ffe6cc;strokeColor=#d79b00;" parent="7uaxJ8CPoCi_DnrY-XLY-114" vertex="1">
          <mxGeometry x="509.8683074265976" y="114.9497487437186" width="21.581119885139984" height="21.581119885139984" as="geometry" />
        </mxCell>
        <mxCell id="7uaxJ8CPoCi_DnrY-XLY-161" value="" style="ellipse;whiteSpace=wrap;html=1;aspect=fixed;fontSize=20;fillColor=#ffe6cc;strokeColor=#d79b00;" parent="7uaxJ8CPoCi_DnrY-XLY-114" vertex="1">
          <mxGeometry x="572.6932210708118" y="114.9497487437186" width="21.581119885139984" height="21.581119885139984" as="geometry" />
        </mxCell>
        <mxCell id="7uaxJ8CPoCi_DnrY-XLY-162" value="" style="endArrow=none;html=1;rounded=0;entryX=0.5;entryY=0;entryDx=0;entryDy=0;" parent="7uaxJ8CPoCi_DnrY-XLY-114" source="7uaxJ8CPoCi_DnrY-XLY-152" target="7uaxJ8CPoCi_DnrY-XLY-158" edge="1">
          <mxGeometry width="50" height="50" relative="1" as="geometry">
            <mxPoint x="469.36960276338516" y="66.89698492462311" as="sourcePoint" />
            <mxPoint x="500.5224525043178" y="123.42964824120604" as="targetPoint" />
          </mxGeometry>
        </mxCell>
        <mxCell id="7uaxJ8CPoCi_DnrY-XLY-163" value="" style="endArrow=none;html=1;rounded=0;fontSize=12;startSize=8;endSize=8;curved=1;entryX=0;entryY=1;entryDx=0;entryDy=0;exitX=0.5;exitY=0;exitDx=0;exitDy=0;" parent="7uaxJ8CPoCi_DnrY-XLY-114" source="7uaxJ8CPoCi_DnrY-XLY-152" target="7uaxJ8CPoCi_DnrY-XLY-155" edge="1">
          <mxGeometry width="50" height="50" relative="1" as="geometry">
            <mxPoint x="498.44559585492226" y="71.60804020100502" as="sourcePoint" />
            <mxPoint x="550.36701208981" y="24.497487437185928" as="targetPoint" />
          </mxGeometry>
        </mxCell>
        <mxCell id="7uaxJ8CPoCi_DnrY-XLY-164" value="" style="endArrow=none;html=1;rounded=0;" parent="7uaxJ8CPoCi_DnrY-XLY-114" source="7uaxJ8CPoCi_DnrY-XLY-160" target="7uaxJ8CPoCi_DnrY-XLY-153" edge="1">
          <mxGeometry width="50" height="50" relative="1" as="geometry">
            <mxPoint x="521.2910189982729" y="123.42964824120604" as="sourcePoint" />
            <mxPoint x="552.4438687392055" y="66.89698492462311" as="targetPoint" />
          </mxGeometry>
        </mxCell>
        <mxCell id="7uaxJ8CPoCi_DnrY-XLY-165" value="" style="endArrow=none;html=1;rounded=0;fontSize=12;startSize=8;endSize=8;curved=1;entryX=0;entryY=1;entryDx=0;entryDy=0;exitX=0.5;exitY=0;exitDx=0;exitDy=0;" parent="7uaxJ8CPoCi_DnrY-XLY-114" source="7uaxJ8CPoCi_DnrY-XLY-157" target="7uaxJ8CPoCi_DnrY-XLY-152" edge="1">
          <mxGeometry width="50" height="50" relative="1" as="geometry">
            <mxPoint x="520.2525906735751" y="65.01256281407035" as="sourcePoint" />
            <mxPoint x="572.174006908463" y="17.902010050251256" as="targetPoint" />
          </mxGeometry>
        </mxCell>
        <mxCell id="zID7J7bNnaFsys9Mxsp1-6" value="" style="endArrow=classic;html=1;rounded=0;entryX=0.406;entryY=0;entryDx=0;entryDy=0;entryPerimeter=0;" edge="1" parent="7uaxJ8CPoCi_DnrY-XLY-114" target="qEo4afx9TA5bRtrSpqiY-0">
          <mxGeometry relative="1" as="geometry">
            <mxPoint x="80.37" y="149.5" as="sourcePoint" />
            <mxPoint x="76.37" y="234.5" as="targetPoint" />
          </mxGeometry>
        </mxCell>
        <mxCell id="zID7J7bNnaFsys9Mxsp1-7" value="&amp;nbsp; &amp;nbsp; &amp;nbsp; &amp;nbsp; &amp;nbsp; &amp;nbsp; &amp;nbsp; &amp;nbsp; &amp;nbsp; &amp;nbsp; &amp;nbsp; &amp;nbsp;&lt;br&gt;&amp;nbsp; &amp;nbsp; &amp;nbsp; &amp;nbsp; &amp;nbsp; &amp;nbsp; &amp;nbsp; &amp;nbsp; &amp;nbsp; &amp;nbsp; &amp;nbsp; &amp;nbsp; &amp;nbsp; &amp;nbsp; &amp;nbsp; &amp;nbsp; &amp;nbsp; &amp;nbsp; &amp;nbsp; &amp;nbsp; &amp;nbsp; &amp;nbsp; &amp;nbsp; &amp;nbsp; &amp;nbsp; &amp;nbsp; &amp;nbsp; &amp;nbsp; &amp;nbsp; &amp;nbsp; &amp;nbsp; &amp;nbsp; &amp;nbsp; &amp;nbsp; &amp;nbsp; &amp;nbsp; &amp;nbsp; &amp;nbsp; &amp;nbsp; &amp;nbsp; &amp;nbsp; &amp;nbsp; &amp;nbsp; &amp;nbsp; &amp;nbsp; &amp;nbsp; &amp;nbsp; &amp;nbsp; &amp;nbsp; &amp;nbsp; &amp;nbsp; &amp;nbsp;&amp;nbsp;" style="edgeLabel;resizable=0;html=1;align=center;verticalAlign=middle;" connectable="0" vertex="1" parent="zID7J7bNnaFsys9Mxsp1-6">
          <mxGeometry relative="1" as="geometry">
            <mxPoint x="135" y="20" as="offset" />
          </mxGeometry>
        </mxCell>
        <mxCell id="7uaxJ8CPoCi_DnrY-XLY-172" value="Input Trees" style="rounded=1;whiteSpace=wrap;html=1;fontSize=20;fillColor=#FFE6CC;rotation=-90;" parent="7uaxJ8CPoCi_DnrY-XLY-1" vertex="1">
          <mxGeometry x="-26" y="-934" width="213" height="94" as="geometry" />
        </mxCell>
        <mxCell id="qEo4afx9TA5bRtrSpqiY-1" value="Distance Matrices" style="rounded=1;whiteSpace=wrap;html=1;fontSize=20;fillColor=#FFE6CC;rotation=-90;" parent="7uaxJ8CPoCi_DnrY-XLY-1" vertex="1">
          <mxGeometry x="-26" y="-652" width="213" height="94" as="geometry" />
        </mxCell>
        <mxCell id="qEo4afx9TA5bRtrSpqiY-2" value="Super Graph" style="rounded=1;whiteSpace=wrap;html=1;fontSize=20;fillColor=#FFE6CC;rotation=-90;" parent="7uaxJ8CPoCi_DnrY-XLY-1" vertex="1">
          <mxGeometry x="-26" y="-363" width="213" height="94" as="geometry" />
        </mxCell>
        <mxCell id="qEo4afx9TA5bRtrSpqiY-9" value="Matrix of Super Graph" style="rounded=1;whiteSpace=wrap;html=1;fontSize=20;fillColor=#FFE6CC;rotation=-90;" parent="7uaxJ8CPoCi_DnrY-XLY-1" vertex="1">
          <mxGeometry x="-26" y="-71.5" width="213" height="94" as="geometry" />
        </mxCell>
        <mxCell id="qEo4afx9TA5bRtrSpqiY-10" value="Minimum Spanning Tree (MST)" style="rounded=1;whiteSpace=wrap;html=1;fontSize=20;fillColor=#FFE6CC;rotation=-90;" parent="7uaxJ8CPoCi_DnrY-XLY-1" vertex="1">
          <mxGeometry x="-28" y="230.5" width="213" height="94" as="geometry" />
        </mxCell>
        <mxCell id="qEo4afx9TA5bRtrSpqiY-11" value="Consensus Tree with topological and branch length information" style="rounded=1;whiteSpace=wrap;html=1;fontSize=20;fillColor=#FFE6CC;rotation=-90;" parent="7uaxJ8CPoCi_DnrY-XLY-1" vertex="1">
          <mxGeometry x="-28" y="539.5" width="213" height="94" as="geometry" />
        </mxCell>
        <mxCell id="qEo4afx9TA5bRtrSpqiY-14" value="" style="group" parent="7uaxJ8CPoCi_DnrY-XLY-1" vertex="1" connectable="0">
          <mxGeometry x="380" y="529" width="168.5" height="147" as="geometry" />
        </mxCell>
        <mxCell id="7uaxJ8CPoCi_DnrY-XLY-95" value="" style="endArrow=none;html=1;rounded=0;" parent="qEo4afx9TA5bRtrSpqiY-14" source="7uaxJ8CPoCi_DnrY-XLY-103" edge="1">
          <mxGeometry width="50" height="50" relative="1" as="geometry">
            <mxPoint x="164" y="131" as="sourcePoint" />
            <mxPoint x="84" y="11" as="targetPoint" />
          </mxGeometry>
        </mxCell>
        <mxCell id="7uaxJ8CPoCi_DnrY-XLY-96" value="" style="endArrow=none;html=1;rounded=0;" parent="qEo4afx9TA5bRtrSpqiY-14" source="7uaxJ8CPoCi_DnrY-XLY-101" edge="1">
          <mxGeometry width="50" height="50" relative="1" as="geometry">
            <mxPoint x="94" y="131" as="sourcePoint" />
            <mxPoint x="124" y="71" as="targetPoint" />
          </mxGeometry>
        </mxCell>
        <mxCell id="7uaxJ8CPoCi_DnrY-XLY-98" value="" style="endArrow=none;html=1;rounded=0;" parent="qEo4afx9TA5bRtrSpqiY-14" target="7uaxJ8CPoCi_DnrY-XLY-99" edge="1">
          <mxGeometry width="50" height="50" relative="1" as="geometry">
            <mxPoint x="44" y="71" as="sourcePoint" />
            <mxPoint x="74" y="131" as="targetPoint" />
          </mxGeometry>
        </mxCell>
        <mxCell id="7uaxJ8CPoCi_DnrY-XLY-99" value="&lt;b&gt;&lt;br&gt;&lt;/b&gt;" style="ellipse;whiteSpace=wrap;html=1;aspect=fixed;fontSize=20;fillColor=#f0a30a;strokeColor=#BD7000;fontColor=#000000;" parent="qEo4afx9TA5bRtrSpqiY-14" vertex="1">
          <mxGeometry x="30" y="59.5" width="30" height="30" as="geometry" />
        </mxCell>
        <mxCell id="7uaxJ8CPoCi_DnrY-XLY-101" value="&lt;b&gt;&lt;br&gt;&lt;/b&gt;" style="ellipse;whiteSpace=wrap;html=1;aspect=fixed;fontSize=20;fillColor=#f0a30a;strokeColor=#BD7000;fontColor=#000000;" parent="qEo4afx9TA5bRtrSpqiY-14" vertex="1">
          <mxGeometry x="102" y="57" width="30" height="30" as="geometry" />
        </mxCell>
        <mxCell id="7uaxJ8CPoCi_DnrY-XLY-102" value="" style="endArrow=none;html=1;rounded=0;exitX=0.5;exitY=0;exitDx=0;exitDy=0;" parent="qEo4afx9TA5bRtrSpqiY-14" source="7uaxJ8CPoCi_DnrY-XLY-101" target="7uaxJ8CPoCi_DnrY-XLY-103" edge="1">
          <mxGeometry width="50" height="50" relative="1" as="geometry">
            <mxPoint x="112" y="59" as="sourcePoint" />
            <mxPoint x="84" y="11" as="targetPoint" />
          </mxGeometry>
        </mxCell>
        <mxCell id="7uaxJ8CPoCi_DnrY-XLY-103" value="&lt;b&gt;&lt;br&gt;&lt;/b&gt;" style="ellipse;whiteSpace=wrap;html=1;aspect=fixed;fontSize=20;fillColor=#f0a30a;strokeColor=#BD7000;fontColor=#000000;" parent="qEo4afx9TA5bRtrSpqiY-14" vertex="1">
          <mxGeometry x="63" width="30" height="30" as="geometry" />
        </mxCell>
        <mxCell id="7uaxJ8CPoCi_DnrY-XLY-104" value="" style="endArrow=none;html=1;rounded=0;fontSize=12;startSize=8;endSize=8;curved=1;exitX=1;exitY=1;exitDx=0;exitDy=0;entryX=0.5;entryY=0;entryDx=0;entryDy=0;" parent="qEo4afx9TA5bRtrSpqiY-14" source="7uaxJ8CPoCi_DnrY-XLY-101" target="7uaxJ8CPoCi_DnrY-XLY-109" edge="1">
          <mxGeometry width="50" height="50" relative="1" as="geometry">
            <mxPoint x="103" y="85" as="sourcePoint" />
            <mxPoint x="160" y="129" as="targetPoint" />
          </mxGeometry>
        </mxCell>
        <mxCell id="7uaxJ8CPoCi_DnrY-XLY-105" value="" style="ellipse;whiteSpace=wrap;html=1;aspect=fixed;fontSize=20;fillColor=#ffe6cc;strokeColor=#d79b00;" parent="qEo4afx9TA5bRtrSpqiY-14" vertex="1">
          <mxGeometry y="122" width="25" height="25" as="geometry" />
        </mxCell>
        <mxCell id="7uaxJ8CPoCi_DnrY-XLY-106" value="" style="ellipse;whiteSpace=wrap;html=1;aspect=fixed;fontSize=20;fillColor=#ffe6cc;strokeColor=#d79b00;" parent="qEo4afx9TA5bRtrSpqiY-14" vertex="1">
          <mxGeometry x="51" y="122" width="25" height="25" as="geometry" />
        </mxCell>
        <mxCell id="7uaxJ8CPoCi_DnrY-XLY-107" value="" style="endArrow=none;html=1;rounded=0;" parent="qEo4afx9TA5bRtrSpqiY-14" target="7uaxJ8CPoCi_DnrY-XLY-108" edge="1">
          <mxGeometry width="50" height="50" relative="1" as="geometry">
            <mxPoint x="94" y="131" as="sourcePoint" />
            <mxPoint x="115" y="90" as="targetPoint" />
          </mxGeometry>
        </mxCell>
        <mxCell id="7uaxJ8CPoCi_DnrY-XLY-108" value="" style="ellipse;whiteSpace=wrap;html=1;aspect=fixed;fontSize=20;fillColor=#ffe6cc;strokeColor=#d79b00;" parent="qEo4afx9TA5bRtrSpqiY-14" vertex="1">
          <mxGeometry x="83" y="122" width="25" height="25" as="geometry" />
        </mxCell>
        <mxCell id="7uaxJ8CPoCi_DnrY-XLY-109" value="" style="ellipse;whiteSpace=wrap;html=1;aspect=fixed;fontSize=20;fillColor=#ffe6cc;strokeColor=#d79b00;" parent="qEo4afx9TA5bRtrSpqiY-14" vertex="1">
          <mxGeometry x="143.5" y="122" width="25" height="25" as="geometry" />
        </mxCell>
        <mxCell id="7uaxJ8CPoCi_DnrY-XLY-97" value="" style="endArrow=none;html=1;rounded=0;entryX=0.5;entryY=0;entryDx=0;entryDy=0;" parent="qEo4afx9TA5bRtrSpqiY-14" source="7uaxJ8CPoCi_DnrY-XLY-99" target="7uaxJ8CPoCi_DnrY-XLY-106" edge="1">
          <mxGeometry width="50" height="50" relative="1" as="geometry">
            <mxPoint x="44" y="71" as="sourcePoint" />
            <mxPoint x="74" y="131" as="targetPoint" />
          </mxGeometry>
        </mxCell>
        <mxCell id="7uaxJ8CPoCi_DnrY-XLY-110" value="" style="endArrow=none;html=1;rounded=0;fontSize=12;startSize=8;endSize=8;curved=1;entryX=0;entryY=1;entryDx=0;entryDy=0;exitX=0.5;exitY=0;exitDx=0;exitDy=0;" parent="qEo4afx9TA5bRtrSpqiY-14" source="7uaxJ8CPoCi_DnrY-XLY-99" target="7uaxJ8CPoCi_DnrY-XLY-103" edge="1">
          <mxGeometry width="50" height="50" relative="1" as="geometry">
            <mxPoint x="72" y="76" as="sourcePoint" />
            <mxPoint x="122" y="26" as="targetPoint" />
          </mxGeometry>
        </mxCell>
        <mxCell id="7uaxJ8CPoCi_DnrY-XLY-100" value="" style="endArrow=none;html=1;rounded=0;" parent="qEo4afx9TA5bRtrSpqiY-14" source="7uaxJ8CPoCi_DnrY-XLY-108" target="7uaxJ8CPoCi_DnrY-XLY-101" edge="1">
          <mxGeometry width="50" height="50" relative="1" as="geometry">
            <mxPoint x="94" y="131" as="sourcePoint" />
            <mxPoint x="124" y="71" as="targetPoint" />
          </mxGeometry>
        </mxCell>
        <mxCell id="7uaxJ8CPoCi_DnrY-XLY-111" value="" style="endArrow=none;html=1;rounded=0;fontSize=12;startSize=8;endSize=8;curved=1;entryX=0;entryY=1;entryDx=0;entryDy=0;exitX=0.5;exitY=0;exitDx=0;exitDy=0;" parent="qEo4afx9TA5bRtrSpqiY-14" source="7uaxJ8CPoCi_DnrY-XLY-105" target="7uaxJ8CPoCi_DnrY-XLY-99" edge="1">
          <mxGeometry width="50" height="50" relative="1" as="geometry">
            <mxPoint x="93" y="69" as="sourcePoint" />
            <mxPoint x="143" y="19" as="targetPoint" />
          </mxGeometry>
        </mxCell>
        <mxCell id="qEo4afx9TA5bRtrSpqiY-15" value="" style="group" parent="7uaxJ8CPoCi_DnrY-XLY-1" vertex="1" connectable="0">
          <mxGeometry x="174" y="-412" width="563" height="185" as="geometry" />
        </mxCell>
        <mxCell id="7uaxJ8CPoCi_DnrY-XLY-12" value="" style="ellipse;whiteSpace=wrap;html=1;aspect=fixed;fontSize=20;fillColor=#f0a30a;strokeColor=#BD7000;fontColor=#000000;" parent="qEo4afx9TA5bRtrSpqiY-15" vertex="1">
          <mxGeometry x="77" width="40" height="40" as="geometry" />
        </mxCell>
        <mxCell id="7uaxJ8CPoCi_DnrY-XLY-15" value="" style="ellipse;whiteSpace=wrap;html=1;aspect=fixed;fontSize=20;fillColor=#ffe6cc;strokeColor=#d79b00;" parent="qEo4afx9TA5bRtrSpqiY-15" vertex="1">
          <mxGeometry x="417" width="40" height="40" as="geometry" />
        </mxCell>
        <mxCell id="7uaxJ8CPoCi_DnrY-XLY-17" value="&lt;b&gt;&lt;br&gt;&lt;/b&gt;" style="ellipse;whiteSpace=wrap;html=1;aspect=fixed;fontSize=20;fillColor=#f0a30a;strokeColor=#BD7000;fontColor=#000000;" parent="qEo4afx9TA5bRtrSpqiY-15" vertex="1">
          <mxGeometry x="250.75" width="40" height="40" as="geometry" />
        </mxCell>
        <mxCell id="7uaxJ8CPoCi_DnrY-XLY-19" value="" style="ellipse;whiteSpace=wrap;html=1;aspect=fixed;fontSize=20;fillColor=#ffe6cc;strokeColor=#d79b00;" parent="qEo4afx9TA5bRtrSpqiY-15" vertex="1">
          <mxGeometry x="77" y="145" width="40" height="40" as="geometry" />
        </mxCell>
        <mxCell id="7uaxJ8CPoCi_DnrY-XLY-21" value="" style="ellipse;whiteSpace=wrap;html=1;aspect=fixed;fontSize=20;fillColor=#f0a30a;strokeColor=#BD7000;fontColor=#000000;" parent="qEo4afx9TA5bRtrSpqiY-15" vertex="1">
          <mxGeometry x="252.75" y="147" width="36" height="36" as="geometry" />
        </mxCell>
        <mxCell id="7uaxJ8CPoCi_DnrY-XLY-22" value="" style="ellipse;whiteSpace=wrap;html=1;aspect=fixed;fontSize=20;fillColor=#f0a30a;strokeColor=#BD7000;fontColor=#000000;" parent="qEo4afx9TA5bRtrSpqiY-15" vertex="1">
          <mxGeometry x="417" y="145" width="40" height="40" as="geometry" />
        </mxCell>
        <mxCell id="7uaxJ8CPoCi_DnrY-XLY-26" value="" style="ellipse;whiteSpace=wrap;html=1;aspect=fixed;fontSize=20;fillColor=#ffe6cc;strokeColor=#d79b00;" parent="qEo4afx9TA5bRtrSpqiY-15" vertex="1">
          <mxGeometry y="72" width="40" height="40" as="geometry" />
        </mxCell>
        <mxCell id="7uaxJ8CPoCi_DnrY-XLY-29" value="" style="ellipse;whiteSpace=wrap;html=1;aspect=fixed;fontSize=20;fillColor=#ffe6cc;strokeColor=#d79b00;" parent="qEo4afx9TA5bRtrSpqiY-15" vertex="1">
          <mxGeometry x="523" y="72" width="40" height="40" as="geometry" />
        </mxCell>
        <mxCell id="7uaxJ8CPoCi_DnrY-XLY-31" value="" style="ellipse;whiteSpace=wrap;html=1;aspect=fixed;fontSize=20;fillColor=#f0a30a;strokeColor=#BD7000;fontColor=#000000;" parent="qEo4afx9TA5bRtrSpqiY-15" vertex="1">
          <mxGeometry x="336" y="72" width="40" height="40" as="geometry" />
        </mxCell>
        <mxCell id="7uaxJ8CPoCi_DnrY-XLY-32" value="" style="ellipse;whiteSpace=wrap;html=1;aspect=fixed;fontSize=20;fillColor=#f0a30a;strokeColor=#BD7000;fontColor=#000000;" parent="qEo4afx9TA5bRtrSpqiY-15" vertex="1">
          <mxGeometry x="167.75" y="72" width="40" height="40" as="geometry" />
        </mxCell>
        <mxCell id="7uaxJ8CPoCi_DnrY-XLY-23" value="" style="endArrow=none;html=1;rounded=0;entryX=1;entryY=0.5;entryDx=0;entryDy=0;exitX=0;exitY=0.5;exitDx=0;exitDy=0;fillColor=#fff2cc;strokeColor=#d6b656;" parent="qEo4afx9TA5bRtrSpqiY-15" source="7uaxJ8CPoCi_DnrY-XLY-17" target="7uaxJ8CPoCi_DnrY-XLY-12" edge="1">
          <mxGeometry width="50" height="50" relative="1" as="geometry">
            <mxPoint x="292" y="-254" as="sourcePoint" />
            <mxPoint x="292" y="-434" as="targetPoint" />
          </mxGeometry>
        </mxCell>
        <mxCell id="7uaxJ8CPoCi_DnrY-XLY-24" value="" style="endArrow=none;html=1;rounded=0;entryX=0;entryY=0.5;entryDx=0;entryDy=0;exitX=1;exitY=0.5;exitDx=0;exitDy=0;fillColor=#fff2cc;strokeColor=#d6b656;" parent="qEo4afx9TA5bRtrSpqiY-15" source="7uaxJ8CPoCi_DnrY-XLY-17" target="7uaxJ8CPoCi_DnrY-XLY-15" edge="1">
          <mxGeometry width="50" height="50" relative="1" as="geometry">
            <mxPoint x="304" y="-242" as="sourcePoint" />
            <mxPoint x="304" y="-422" as="targetPoint" />
          </mxGeometry>
        </mxCell>
        <mxCell id="7uaxJ8CPoCi_DnrY-XLY-18" value="" style="endArrow=none;html=1;rounded=0;entryX=1;entryY=0.5;entryDx=0;entryDy=0;exitX=0;exitY=0.5;exitDx=0;exitDy=0;fillColor=#fff2cc;strokeColor=#d6b656;" parent="qEo4afx9TA5bRtrSpqiY-15" source="7uaxJ8CPoCi_DnrY-XLY-21" target="7uaxJ8CPoCi_DnrY-XLY-19" edge="1">
          <mxGeometry width="50" height="50" relative="1" as="geometry">
            <mxPoint x="432" y="-246" as="sourcePoint" />
            <mxPoint x="255" y="-310" as="targetPoint" />
          </mxGeometry>
        </mxCell>
        <mxCell id="7uaxJ8CPoCi_DnrY-XLY-20" value="" style="endArrow=none;html=1;rounded=0;entryX=1;entryY=0.5;entryDx=0;entryDy=0;exitX=0;exitY=0.5;exitDx=0;exitDy=0;fillColor=#fff2cc;strokeColor=#d6b656;" parent="qEo4afx9TA5bRtrSpqiY-15" source="7uaxJ8CPoCi_DnrY-XLY-22" target="7uaxJ8CPoCi_DnrY-XLY-21" edge="1">
          <mxGeometry width="50" height="50" relative="1" as="geometry">
            <mxPoint x="588" y="-246" as="sourcePoint" />
            <mxPoint x="450" y="-234" as="targetPoint" />
          </mxGeometry>
        </mxCell>
        <mxCell id="7uaxJ8CPoCi_DnrY-XLY-25" value="" style="endArrow=none;html=1;rounded=0;entryX=0.5;entryY=1;entryDx=0;entryDy=0;exitX=0;exitY=0.5;exitDx=0;exitDy=0;fillColor=#fff2cc;strokeColor=#d6b656;" parent="qEo4afx9TA5bRtrSpqiY-15" source="7uaxJ8CPoCi_DnrY-XLY-19" target="7uaxJ8CPoCi_DnrY-XLY-26" edge="1">
          <mxGeometry width="50" height="50" relative="1" as="geometry">
            <mxPoint x="292" y="-254" as="sourcePoint" />
            <mxPoint x="231" y="-334" as="targetPoint" />
          </mxGeometry>
        </mxCell>
        <mxCell id="7uaxJ8CPoCi_DnrY-XLY-35" value="" style="endArrow=none;html=1;rounded=0;entryX=0;entryY=1;entryDx=0;entryDy=0;exitX=1;exitY=0;exitDx=0;exitDy=0;fillColor=#fff2cc;strokeColor=#d6b656;" parent="qEo4afx9TA5bRtrSpqiY-15" source="7uaxJ8CPoCi_DnrY-XLY-26" target="7uaxJ8CPoCi_DnrY-XLY-12" edge="1">
          <mxGeometry width="50" height="50" relative="1" as="geometry">
            <mxPoint x="300" y="-292" as="sourcePoint" />
            <mxPoint x="350" y="-342" as="targetPoint" />
          </mxGeometry>
        </mxCell>
        <mxCell id="7uaxJ8CPoCi_DnrY-XLY-37" value="" style="endArrow=none;html=1;rounded=0;exitX=0.35;exitY=0;exitDx=0;exitDy=0;exitPerimeter=0;entryX=1;entryY=0.5;entryDx=0;entryDy=0;fillColor=#fff2cc;strokeColor=#d6b656;" parent="qEo4afx9TA5bRtrSpqiY-15" source="7uaxJ8CPoCi_DnrY-XLY-29" target="7uaxJ8CPoCi_DnrY-XLY-15" edge="1">
          <mxGeometry width="50" height="50" relative="1" as="geometry">
            <mxPoint x="244" y="-340" as="sourcePoint" />
            <mxPoint x="606" y="-452" as="targetPoint" />
          </mxGeometry>
        </mxCell>
        <mxCell id="7uaxJ8CPoCi_DnrY-XLY-34" value="" style="endArrow=none;html=1;rounded=0;entryX=0;entryY=0.5;entryDx=0;entryDy=0;exitX=1;exitY=0.5;exitDx=0;exitDy=0;fillColor=#fff2cc;strokeColor=#d6b656;" parent="qEo4afx9TA5bRtrSpqiY-15" source="7uaxJ8CPoCi_DnrY-XLY-31" target="7uaxJ8CPoCi_DnrY-XLY-29" edge="1">
          <mxGeometry width="50" height="50" relative="1" as="geometry">
            <mxPoint x="316" y="-230" as="sourcePoint" />
            <mxPoint x="316" y="-410" as="targetPoint" />
          </mxGeometry>
        </mxCell>
        <mxCell id="7uaxJ8CPoCi_DnrY-XLY-39" value="" style="endArrow=none;html=1;rounded=0;exitX=1;exitY=1;exitDx=0;exitDy=0;entryX=0;entryY=0;entryDx=0;entryDy=0;fillColor=#fff2cc;strokeColor=#d6b656;" parent="qEo4afx9TA5bRtrSpqiY-15" source="7uaxJ8CPoCi_DnrY-XLY-31" target="7uaxJ8CPoCi_DnrY-XLY-22" edge="1">
          <mxGeometry width="50" height="50" relative="1" as="geometry">
            <mxPoint x="268" y="-316" as="sourcePoint" />
            <mxPoint x="400" y="-304" as="targetPoint" />
          </mxGeometry>
        </mxCell>
        <mxCell id="7uaxJ8CPoCi_DnrY-XLY-41" value="" style="endArrow=none;html=1;rounded=0;entryX=1;entryY=1;entryDx=0;entryDy=0;fillColor=#fff2cc;strokeColor=#d6b656;" parent="qEo4afx9TA5bRtrSpqiY-15" source="7uaxJ8CPoCi_DnrY-XLY-31" target="7uaxJ8CPoCi_DnrY-XLY-17" edge="1">
          <mxGeometry width="50" height="50" relative="1" as="geometry">
            <mxPoint x="480" y="-382" as="sourcePoint" />
            <mxPoint x="530" y="-432" as="targetPoint" />
          </mxGeometry>
        </mxCell>
        <mxCell id="7uaxJ8CPoCi_DnrY-XLY-33" value="" style="endArrow=none;html=1;rounded=0;entryX=1;entryY=0.5;entryDx=0;entryDy=0;exitX=0;exitY=0.5;exitDx=0;exitDy=0;fillColor=#fff2cc;strokeColor=#d6b656;" parent="qEo4afx9TA5bRtrSpqiY-15" source="7uaxJ8CPoCi_DnrY-XLY-31" target="7uaxJ8CPoCi_DnrY-XLY-32" edge="1">
          <mxGeometry width="50" height="50" relative="1" as="geometry">
            <mxPoint x="304" y="-242" as="sourcePoint" />
            <mxPoint x="304" y="-422" as="targetPoint" />
          </mxGeometry>
        </mxCell>
        <mxCell id="7uaxJ8CPoCi_DnrY-XLY-36" value="" style="endArrow=none;html=1;rounded=0;exitX=0;exitY=1;exitDx=0;exitDy=0;entryX=0.5;entryY=0;entryDx=0;entryDy=0;fillColor=#fff2cc;strokeColor=#d6b656;" parent="qEo4afx9TA5bRtrSpqiY-15" source="7uaxJ8CPoCi_DnrY-XLY-17" target="7uaxJ8CPoCi_DnrY-XLY-32" edge="1">
          <mxGeometry width="50" height="50" relative="1" as="geometry">
            <mxPoint x="300" y="-292" as="sourcePoint" />
            <mxPoint x="336" y="-366" as="targetPoint" />
          </mxGeometry>
        </mxCell>
        <mxCell id="7uaxJ8CPoCi_DnrY-XLY-38" value="" style="endArrow=none;html=1;rounded=0;exitX=1;exitY=0;exitDx=0;exitDy=0;entryX=0;entryY=1;entryDx=0;entryDy=0;fillColor=#fff2cc;strokeColor=#d6b656;" parent="qEo4afx9TA5bRtrSpqiY-15" source="7uaxJ8CPoCi_DnrY-XLY-19" target="7uaxJ8CPoCi_DnrY-XLY-32" edge="1">
          <mxGeometry width="50" height="50" relative="1" as="geometry">
            <mxPoint x="256" y="-328" as="sourcePoint" />
            <mxPoint x="388" y="-316" as="targetPoint" />
          </mxGeometry>
        </mxCell>
        <mxCell id="7uaxJ8CPoCi_DnrY-XLY-40" value="" style="endArrow=none;html=1;rounded=0;entryX=1;entryY=1;entryDx=0;entryDy=0;exitX=0;exitY=0;exitDx=0;exitDy=0;fillColor=#fff2cc;strokeColor=#d6b656;" parent="qEo4afx9TA5bRtrSpqiY-15" source="7uaxJ8CPoCi_DnrY-XLY-21" target="7uaxJ8CPoCi_DnrY-XLY-32" edge="1">
          <mxGeometry width="50" height="50" relative="1" as="geometry">
            <mxPoint x="252" y="-382" as="sourcePoint" />
            <mxPoint x="302" y="-432" as="targetPoint" />
          </mxGeometry>
        </mxCell>
        <mxCell id="7uaxJ8CPoCi_DnrY-XLY-11" value="" style="endArrow=none;html=1;rounded=0;entryX=0.5;entryY=1;entryDx=0;entryDy=0;fillColor=#fff2cc;strokeColor=#d6b656;exitX=0.5;exitY=0;exitDx=0;exitDy=0;" parent="qEo4afx9TA5bRtrSpqiY-15" source="7uaxJ8CPoCi_DnrY-XLY-19" target="7uaxJ8CPoCi_DnrY-XLY-12" edge="1">
          <mxGeometry width="50" height="50" relative="1" as="geometry">
            <mxPoint x="106" y="146" as="sourcePoint" />
            <mxPoint x="45" y="66" as="targetPoint" />
          </mxGeometry>
        </mxCell>
        <mxCell id="7uaxJ8CPoCi_DnrY-XLY-16" value="" style="endArrow=none;html=1;rounded=0;entryX=0.5;entryY=1;entryDx=0;entryDy=0;fillColor=#fff2cc;strokeColor=#d6b656;exitX=0.5;exitY=0;exitDx=0;exitDy=0;" parent="qEo4afx9TA5bRtrSpqiY-15" source="7uaxJ8CPoCi_DnrY-XLY-21" target="7uaxJ8CPoCi_DnrY-XLY-17" edge="1">
          <mxGeometry width="50" height="50" relative="1" as="geometry">
            <mxPoint x="278" y="146" as="sourcePoint" />
            <mxPoint x="217" y="66" as="targetPoint" />
          </mxGeometry>
        </mxCell>
        <mxCell id="7uaxJ8CPoCi_DnrY-XLY-14" value="" style="endArrow=none;html=1;rounded=0;entryX=0.5;entryY=1;entryDx=0;entryDy=0;fillColor=#fff2cc;strokeColor=#d6b656;exitX=0.5;exitY=0;exitDx=0;exitDy=0;" parent="qEo4afx9TA5bRtrSpqiY-15" source="7uaxJ8CPoCi_DnrY-XLY-22" target="7uaxJ8CPoCi_DnrY-XLY-15" edge="1">
          <mxGeometry width="50" height="50" relative="1" as="geometry">
            <mxPoint x="446" y="146" as="sourcePoint" />
            <mxPoint x="385" y="66" as="targetPoint" />
          </mxGeometry>
        </mxCell>
        <mxCell id="7uaxJ8CPoCi_DnrY-XLY-28" value="" style="endArrow=none;html=1;rounded=0;entryX=0.5;entryY=1;entryDx=0;entryDy=0;fillColor=#fff2cc;strokeColor=#d6b656;exitX=1;exitY=0.5;exitDx=0;exitDy=0;" parent="qEo4afx9TA5bRtrSpqiY-15" source="7uaxJ8CPoCi_DnrY-XLY-22" target="7uaxJ8CPoCi_DnrY-XLY-29" edge="1">
          <mxGeometry width="50" height="50" relative="1" as="geometry">
            <mxPoint x="462" y="158" as="sourcePoint" />
            <mxPoint x="397" y="78" as="targetPoint" />
          </mxGeometry>
        </mxCell>
        <mxCell id="qEo4afx9TA5bRtrSpqiY-16" value="" style="endArrow=none;html=1;rounded=0;fontSize=12;startSize=8;endSize=8;curved=1;entryX=0;entryY=1;entryDx=0;entryDy=0;exitX=1;exitY=0;exitDx=0;exitDy=0;" parent="7uaxJ8CPoCi_DnrY-XLY-1" source="7uaxJ8CPoCi_DnrY-XLY-60" target="7uaxJ8CPoCi_DnrY-XLY-51" edge="1">
          <mxGeometry width="50" height="50" relative="1" as="geometry">
            <mxPoint x="420" y="374" as="sourcePoint" />
            <mxPoint x="470" y="324" as="targetPoint" />
          </mxGeometry>
        </mxCell>
        <mxCell id="zID7J7bNnaFsys9Mxsp1-1" value="" style="whiteSpace=wrap;html=1;aspect=fixed;fillColor=#ffe6cc;strokeColor=#d79b00;" vertex="1" parent="7uaxJ8CPoCi_DnrY-XLY-1">
          <mxGeometry x="386.5" y="-670" width="118.5" height="118.5" as="geometry" />
        </mxCell>
        <mxCell id="zID7J7bNnaFsys9Mxsp1-2" value="" style="endArrow=none;html=1;rounded=0;exitX=0;exitY=0;exitDx=0;exitDy=0;entryX=1;entryY=1;entryDx=0;entryDy=0;strokeColor=#FFB570;" edge="1" parent="7uaxJ8CPoCi_DnrY-XLY-1" source="zID7J7bNnaFsys9Mxsp1-1" target="zID7J7bNnaFsys9Mxsp1-1">
          <mxGeometry width="50" height="50" relative="1" as="geometry">
            <mxPoint x="684.5" y="-550" as="sourcePoint" />
            <mxPoint x="734.5" y="-600" as="targetPoint" />
            <Array as="points" />
          </mxGeometry>
        </mxCell>
        <mxCell id="zID7J7bNnaFsys9Mxsp1-3" value="" style="whiteSpace=wrap;html=1;aspect=fixed;fillColor=#ffe6cc;strokeColor=#d79b00;" vertex="1" parent="7uaxJ8CPoCi_DnrY-XLY-1">
          <mxGeometry x="606" y="-670" width="118.5" height="118.5" as="geometry" />
        </mxCell>
        <mxCell id="zID7J7bNnaFsys9Mxsp1-4" value="" style="endArrow=none;html=1;rounded=0;exitX=0;exitY=0;exitDx=0;exitDy=0;entryX=1;entryY=1;entryDx=0;entryDy=0;strokeColor=#FFB570;" edge="1" parent="7uaxJ8CPoCi_DnrY-XLY-1" source="zID7J7bNnaFsys9Mxsp1-3" target="zID7J7bNnaFsys9Mxsp1-3">
          <mxGeometry width="50" height="50" relative="1" as="geometry">
            <mxPoint x="904" y="-550" as="sourcePoint" />
            <mxPoint x="954" y="-600" as="targetPoint" />
            <Array as="points" />
          </mxGeometry>
        </mxCell>
        <mxCell id="7uaxJ8CPoCi_DnrY-XLY-65" value="&lt;font style=&quot;font-size: 20px;&quot;&gt;Get the distance between all nodes&lt;/font&gt;" style="text;strokeColor=none;fillColor=none;html=1;align=center;verticalAlign=middle;whiteSpace=wrap;rounded=0;fontSize=16;" parent="7uaxJ8CPoCi_DnrY-XLY-1" vertex="1">
          <mxGeometry x="136.25" y="-766" width="612" height="30" as="geometry" />
        </mxCell>
        <mxCell id="zID7J7bNnaFsys9Mxsp1-16" value="" style="endArrow=classic;html=1;rounded=0;fontSize=12;startSize=8;endSize=8;curved=1;entryX=0.49;entryY=0.011;entryDx=0;entryDy=0;entryPerimeter=0;" edge="1" parent="7uaxJ8CPoCi_DnrY-XLY-1">
          <mxGeometry width="50" height="50" relative="1" as="geometry">
            <mxPoint x="453.0300000000001" y="-533" as="sourcePoint" />
            <mxPoint x="452.75" y="-421.5" as="targetPoint" />
          </mxGeometry>
        </mxCell>
        <mxCell id="zID7J7bNnaFsys9Mxsp1-17" value="" style="endArrow=classic;html=1;rounded=0;fontSize=12;startSize=8;endSize=8;curved=1;entryX=0.575;entryY=0.003;entryDx=0;entryDy=0;entryPerimeter=0;" edge="1" parent="7uaxJ8CPoCi_DnrY-XLY-1">
          <mxGeometry width="50" height="50" relative="1" as="geometry">
            <mxPoint x="674.98" y="-538" as="sourcePoint" />
            <mxPoint x="505.75" y="-422.5" as="targetPoint" />
          </mxGeometry>
        </mxCell>
        <mxCell id="zID7J7bNnaFsys9Mxsp1-18" value="" style="endArrow=classic;html=1;rounded=0;entryX=0.406;entryY=0;entryDx=0;entryDy=0;entryPerimeter=0;" edge="1" parent="7uaxJ8CPoCi_DnrY-XLY-1">
          <mxGeometry relative="1" as="geometry">
            <mxPoint x="250.12" y="-542" as="sourcePoint" />
            <mxPoint x="400.75" y="-423.5" as="targetPoint" />
          </mxGeometry>
        </mxCell>
        <mxCell id="zID7J7bNnaFsys9Mxsp1-19" value="&amp;nbsp; &amp;nbsp; &amp;nbsp; &amp;nbsp; &amp;nbsp; &amp;nbsp; &amp;nbsp; &amp;nbsp; &amp;nbsp; &amp;nbsp; &amp;nbsp; &amp;nbsp;&lt;br&gt;&amp;nbsp; &amp;nbsp; &amp;nbsp; &amp;nbsp; &amp;nbsp; &amp;nbsp; &amp;nbsp; &amp;nbsp; &amp;nbsp; &amp;nbsp; &amp;nbsp; &amp;nbsp; &amp;nbsp; &amp;nbsp; &amp;nbsp; &amp;nbsp; &amp;nbsp; &amp;nbsp; &amp;nbsp; &amp;nbsp; &amp;nbsp; &amp;nbsp; &amp;nbsp; &amp;nbsp; &amp;nbsp; &amp;nbsp; &amp;nbsp; &amp;nbsp; &amp;nbsp; &amp;nbsp; &amp;nbsp; &amp;nbsp; &amp;nbsp; &amp;nbsp; &amp;nbsp; &amp;nbsp; &amp;nbsp; &amp;nbsp; &amp;nbsp; &amp;nbsp; &amp;nbsp; &amp;nbsp; &amp;nbsp; &amp;nbsp; &amp;nbsp; &amp;nbsp; &amp;nbsp; &amp;nbsp; &amp;nbsp; &amp;nbsp; &amp;nbsp; &amp;nbsp;&amp;nbsp;" style="edgeLabel;resizable=0;html=1;align=center;verticalAlign=middle;" connectable="0" vertex="1" parent="zID7J7bNnaFsys9Mxsp1-18">
          <mxGeometry relative="1" as="geometry">
            <mxPoint x="135" y="20" as="offset" />
          </mxGeometry>
        </mxCell>
        <mxCell id="7uaxJ8CPoCi_DnrY-XLY-72" value="&lt;font style=&quot;font-size: 20px;&quot;&gt;Tree-to-Graph Transformation&lt;/font&gt;" style="text;strokeColor=none;fillColor=none;html=1;align=center;verticalAlign=middle;whiteSpace=wrap;rounded=0;fontSize=16;" parent="7uaxJ8CPoCi_DnrY-XLY-1" vertex="1">
          <mxGeometry x="176" y="-477" width="551" height="30" as="geometry" />
        </mxCell>
        <mxCell id="zID7J7bNnaFsys9Mxsp1-22" value="" style="endArrow=classic;html=1;rounded=0;fontSize=12;startSize=8;endSize=8;curved=1;entryX=0.575;entryY=0.003;entryDx=0;entryDy=0;entryPerimeter=0;" edge="1" parent="7uaxJ8CPoCi_DnrY-XLY-1">
          <mxGeometry width="50" height="50" relative="1" as="geometry">
            <mxPoint x="658.98" y="54.5" as="sourcePoint" />
            <mxPoint x="489.75" y="170" as="targetPoint" />
          </mxGeometry>
        </mxCell>
        <mxCell id="zID7J7bNnaFsys9Mxsp1-23" value="" style="endArrow=classic;html=1;rounded=0;entryX=0.406;entryY=0;entryDx=0;entryDy=0;entryPerimeter=0;" edge="1" parent="7uaxJ8CPoCi_DnrY-XLY-1">
          <mxGeometry relative="1" as="geometry">
            <mxPoint x="234.12" y="50.5" as="sourcePoint" />
            <mxPoint x="384.75" y="169" as="targetPoint" />
          </mxGeometry>
        </mxCell>
        <mxCell id="zID7J7bNnaFsys9Mxsp1-24" value="&amp;nbsp; &amp;nbsp; &amp;nbsp; &amp;nbsp; &amp;nbsp; &amp;nbsp; &amp;nbsp; &amp;nbsp; &amp;nbsp; &amp;nbsp; &amp;nbsp; &amp;nbsp;&lt;br&gt;&amp;nbsp; &amp;nbsp; &amp;nbsp; &amp;nbsp; &amp;nbsp; &amp;nbsp; &amp;nbsp; &amp;nbsp; &amp;nbsp; &amp;nbsp; &amp;nbsp; &amp;nbsp; &amp;nbsp; &amp;nbsp; &amp;nbsp; &amp;nbsp; &amp;nbsp; &amp;nbsp; &amp;nbsp; &amp;nbsp; &amp;nbsp; &amp;nbsp; &amp;nbsp; &amp;nbsp; &amp;nbsp; &amp;nbsp; &amp;nbsp; &amp;nbsp; &amp;nbsp; &amp;nbsp; &amp;nbsp; &amp;nbsp; &amp;nbsp; &amp;nbsp; &amp;nbsp; &amp;nbsp; &amp;nbsp; &amp;nbsp; &amp;nbsp; &amp;nbsp; &amp;nbsp; &amp;nbsp; &amp;nbsp; &amp;nbsp; &amp;nbsp; &amp;nbsp; &amp;nbsp; &amp;nbsp; &amp;nbsp; &amp;nbsp; &amp;nbsp; &amp;nbsp;&amp;nbsp;" style="edgeLabel;resizable=0;html=1;align=center;verticalAlign=middle;" connectable="0" vertex="1" parent="zID7J7bNnaFsys9Mxsp1-23">
          <mxGeometry relative="1" as="geometry">
            <mxPoint x="135" y="20" as="offset" />
          </mxGeometry>
        </mxCell>
        <mxCell id="7uaxJ8CPoCi_DnrY-XLY-81" value="&lt;font style=&quot;font-size: 20px;&quot;&gt;Modified Prims algorithm&lt;/font&gt;" style="text;strokeColor=none;fillColor=none;html=1;align=center;verticalAlign=middle;whiteSpace=wrap;rounded=0;fontSize=16;" parent="7uaxJ8CPoCi_DnrY-XLY-1" vertex="1">
          <mxGeometry x="154" y="116" width="585" height="30" as="geometry" />
        </mxCell>
        <mxCell id="zID7J7bNnaFsys9Mxsp1-26" value="" style="endArrow=classic;html=1;rounded=0;fontSize=12;startSize=8;endSize=8;curved=1;entryX=0.49;entryY=0.011;entryDx=0;entryDy=0;entryPerimeter=0;exitX=0.514;exitY=0.996;exitDx=0;exitDy=0;exitPerimeter=0;" edge="1" parent="7uaxJ8CPoCi_DnrY-XLY-1" source="qEo4afx9TA5bRtrSpqiY-12">
          <mxGeometry width="50" height="50" relative="1" as="geometry">
            <mxPoint x="453.70799999999986" y="389" as="sourcePoint" />
            <mxPoint x="453.95799999999986" y="480" as="targetPoint" />
          </mxGeometry>
        </mxCell>
        <mxCell id="zID7J7bNnaFsys9Mxsp1-28" value="" style="endArrow=classic;html=1;rounded=0;entryX=0.513;entryY=-0.001;entryDx=0;entryDy=0;entryPerimeter=0;exitX=0.513;exitY=1.001;exitDx=0;exitDy=0;exitPerimeter=0;" edge="1" parent="7uaxJ8CPoCi_DnrY-XLY-1" source="qEo4afx9TA5bRtrSpqiY-12" target="qEo4afx9TA5bRtrSpqiY-13">
          <mxGeometry relative="1" as="geometry">
            <mxPoint x="250.12" y="359.5" as="sourcePoint" />
            <mxPoint x="400.75" y="478" as="targetPoint" />
          </mxGeometry>
        </mxCell>
        <mxCell id="zID7J7bNnaFsys9Mxsp1-29" value="&amp;nbsp; &amp;nbsp; &amp;nbsp; &amp;nbsp; &amp;nbsp; &amp;nbsp; &amp;nbsp; &amp;nbsp; &amp;nbsp; &amp;nbsp; &amp;nbsp; &amp;nbsp;&lt;br&gt;&amp;nbsp; &amp;nbsp; &amp;nbsp; &amp;nbsp; &amp;nbsp; &amp;nbsp; &amp;nbsp; &amp;nbsp; &amp;nbsp; &amp;nbsp; &amp;nbsp; &amp;nbsp; &amp;nbsp; &amp;nbsp; &amp;nbsp; &amp;nbsp; &amp;nbsp; &amp;nbsp; &amp;nbsp; &amp;nbsp; &amp;nbsp; &amp;nbsp; &amp;nbsp; &amp;nbsp; &amp;nbsp; &amp;nbsp; &amp;nbsp; &amp;nbsp; &amp;nbsp; &amp;nbsp; &amp;nbsp; &amp;nbsp; &amp;nbsp; &amp;nbsp; &amp;nbsp; &amp;nbsp; &amp;nbsp; &amp;nbsp; &amp;nbsp; &amp;nbsp; &amp;nbsp; &amp;nbsp; &amp;nbsp; &amp;nbsp; &amp;nbsp; &amp;nbsp; &amp;nbsp; &amp;nbsp; &amp;nbsp; &amp;nbsp; &amp;nbsp; &amp;nbsp;&amp;nbsp;" style="edgeLabel;resizable=0;html=1;align=center;verticalAlign=middle;" connectable="0" vertex="1" parent="zID7J7bNnaFsys9Mxsp1-28">
          <mxGeometry relative="1" as="geometry">
            <mxPoint x="15" y="7" as="offset" />
          </mxGeometry>
        </mxCell>
        <mxCell id="7uaxJ8CPoCi_DnrY-XLY-88" value="&lt;font style=&quot;font-size: 20px;&quot;&gt;Remove extra internal nodes&lt;/font&gt;" style="text;strokeColor=none;fillColor=none;html=1;align=center;verticalAlign=middle;whiteSpace=wrap;rounded=0;fontSize=16;" parent="7uaxJ8CPoCi_DnrY-XLY-1" vertex="1">
          <mxGeometry x="235" y="424" width="435" height="30" as="geometry" />
        </mxCell>
        <mxCell id="zID7J7bNnaFsys9Mxsp1-33" value="" style="endArrow=classic;html=1;rounded=0;fontSize=12;startSize=8;endSize=8;curved=1;entryX=0.75;entryY=0;entryDx=0;entryDy=0;" edge="1" parent="7uaxJ8CPoCi_DnrY-XLY-1" target="qEo4afx9TA5bRtrSpqiY-7">
          <mxGeometry width="50" height="50" relative="1" as="geometry">
            <mxPoint x="602.75" y="-214" as="sourcePoint" />
            <mxPoint x="728" y="-131" as="targetPoint" />
          </mxGeometry>
        </mxCell>
        <mxCell id="zID7J7bNnaFsys9Mxsp1-36" value="&lt;font style=&quot;font-size: 20px;&quot;&gt;Graph-to-Matrix Transformation&lt;/font&gt;" style="text;strokeColor=none;fillColor=none;html=1;align=center;verticalAlign=middle;whiteSpace=wrap;rounded=0;fontSize=16;" vertex="1" parent="7uaxJ8CPoCi_DnrY-XLY-1">
          <mxGeometry x="161" y="-184" width="551" height="30" as="geometry" />
        </mxCell>
        <mxCell id="zID7J7bNnaFsys9Mxsp1-42" value="" style="endArrow=classic;html=1;rounded=0;fontSize=12;startSize=8;endSize=8;curved=1;entryX=0.75;entryY=0;entryDx=0;entryDy=0;" edge="1" parent="7uaxJ8CPoCi_DnrY-XLY-1">
          <mxGeometry width="50" height="50" relative="1" as="geometry">
            <mxPoint x="262" y="-214" as="sourcePoint" />
            <mxPoint x="262.25" y="-131" as="targetPoint" />
          </mxGeometry>
        </mxCell>
      </root>
    </mxGraphModel>
  </diagram>
  <diagram name="Page-1" id="9K_K0mkHJmMT41TALeDW">
    <mxGraphModel dx="2830" dy="2772" grid="0" gridSize="12" guides="1" tooltips="1" connect="1" arrows="1" fold="1" page="0" pageScale="1" pageWidth="850" pageHeight="1100" math="0" shadow="0">
      <root>
        <mxCell id="0" />
        <mxCell id="1" parent="0" />
        <mxCell id="rpNXx0uhfZ79aRMHJHOM-1" value="" style="rounded=1;whiteSpace=wrap;html=1;fontSize=16;dashed=1;dashPattern=8 8;" vertex="1" parent="1">
          <mxGeometry x="150" y="-708" width="622" height="202" as="geometry" />
        </mxCell>
        <mxCell id="Fvbf834GhWgUttz6UmgZ-2" value="" style="rounded=1;whiteSpace=wrap;html=1;fontSize=16;dashed=1;dashPattern=8 8;" vertex="1" parent="1">
          <mxGeometry x="150" y="-988" width="622" height="202" as="geometry" />
        </mxCell>
        <mxCell id="dfCN1sDORcn2u3nMieMA-1" value="" style="whiteSpace=wrap;html=1;aspect=fixed;fillColor=#ffe6cc;strokeColor=#d79b00;" parent="1" vertex="1">
          <mxGeometry x="179" y="-700" width="80" height="80" as="geometry" />
        </mxCell>
        <mxCell id="dfCN1sDORcn2u3nMieMA-2" value="" style="whiteSpace=wrap;html=1;aspect=fixed;fillColor=#ffe6cc;strokeColor=#d79b00;" parent="1" vertex="1">
          <mxGeometry x="599" y="-700" width="80" height="80" as="geometry" />
        </mxCell>
        <mxCell id="dfCN1sDORcn2u3nMieMA-3" value="" style="whiteSpace=wrap;html=1;aspect=fixed;fillColor=#ffe6cc;strokeColor=#d79b00;" parent="1" vertex="1">
          <mxGeometry x="396" y="-700" width="80" height="80" as="geometry" />
        </mxCell>
        <mxCell id="dfCN1sDORcn2u3nMieMA-4" value="" style="endArrow=none;html=1;rounded=0;exitX=0;exitY=0;exitDx=0;exitDy=0;entryX=1;entryY=1;entryDx=0;entryDy=0;" parent="1" source="dfCN1sDORcn2u3nMieMA-1" target="dfCN1sDORcn2u3nMieMA-1" edge="1">
          <mxGeometry width="50" height="50" relative="1" as="geometry">
            <mxPoint x="489" y="-550" as="sourcePoint" />
            <mxPoint x="539" y="-600" as="targetPoint" />
            <Array as="points" />
          </mxGeometry>
        </mxCell>
        <mxCell id="dfCN1sDORcn2u3nMieMA-5" value="" style="endArrow=none;html=1;rounded=0;entryX=0;entryY=0;entryDx=0;entryDy=0;exitX=1;exitY=1;exitDx=0;exitDy=0;" parent="1" source="dfCN1sDORcn2u3nMieMA-3" target="dfCN1sDORcn2u3nMieMA-3" edge="1">
          <mxGeometry width="50" height="50" relative="1" as="geometry">
            <mxPoint x="579" y="-528" as="sourcePoint" />
            <mxPoint x="629" y="-578" as="targetPoint" />
          </mxGeometry>
        </mxCell>
        <mxCell id="dfCN1sDORcn2u3nMieMA-6" value="" style="endArrow=none;html=1;rounded=0;entryX=0;entryY=0;entryDx=0;entryDy=0;exitX=1;exitY=1;exitDx=0;exitDy=0;" parent="1" source="dfCN1sDORcn2u3nMieMA-2" target="dfCN1sDORcn2u3nMieMA-2" edge="1">
          <mxGeometry width="50" height="50" relative="1" as="geometry">
            <mxPoint x="649" y="-550" as="sourcePoint" />
            <mxPoint x="699" y="-600" as="targetPoint" />
          </mxGeometry>
        </mxCell>
        <mxCell id="eSEaWndHcErj430hBIBG-16" value="" style="line;strokeWidth=2;direction=south;html=1;" parent="1" vertex="1">
          <mxGeometry x="300" y="390" height="160" as="geometry" />
        </mxCell>
        <mxCell id="eSEaWndHcErj430hBIBG-31" value="" style="line;strokeWidth=2;direction=south;html=1;" parent="1" vertex="1">
          <mxGeometry x="312" y="402" height="160" as="geometry" />
        </mxCell>
        <mxCell id="eSEaWndHcErj430hBIBG-56" value="" style="endArrow=none;html=1;rounded=0;entryX=0.5;entryY=1;entryDx=0;entryDy=0;fillColor=#fff2cc;strokeColor=#d6b656;" parent="1" target="eSEaWndHcErj430hBIBG-57" edge="1">
          <mxGeometry width="50" height="50" relative="1" as="geometry">
            <mxPoint x="280" y="-266" as="sourcePoint" />
            <mxPoint x="219" y="-346" as="targetPoint" />
          </mxGeometry>
        </mxCell>
        <mxCell id="eSEaWndHcErj430hBIBG-57" value="" style="ellipse;whiteSpace=wrap;html=1;aspect=fixed;fontSize=20;fillColor=#f0a30a;strokeColor=#BD7000;fontColor=#000000;" parent="1" vertex="1">
          <mxGeometry x="260" y="-486" width="40" height="40" as="geometry" />
        </mxCell>
        <mxCell id="eSEaWndHcErj430hBIBG-58" value="" style="line;strokeWidth=2;direction=south;html=1;" parent="1" vertex="1">
          <mxGeometry x="360" y="-516" height="160" as="geometry" />
        </mxCell>
        <mxCell id="eSEaWndHcErj430hBIBG-59" value="" style="endArrow=none;html=1;rounded=0;entryX=0.5;entryY=1;entryDx=0;entryDy=0;fillColor=#fff2cc;strokeColor=#d6b656;" parent="1" target="eSEaWndHcErj430hBIBG-60" edge="1">
          <mxGeometry width="50" height="50" relative="1" as="geometry">
            <mxPoint x="620" y="-266" as="sourcePoint" />
            <mxPoint x="559" y="-346" as="targetPoint" />
          </mxGeometry>
        </mxCell>
        <mxCell id="eSEaWndHcErj430hBIBG-60" value="" style="ellipse;whiteSpace=wrap;html=1;aspect=fixed;fontSize=20;fillColor=#ffe6cc;strokeColor=#d79b00;" parent="1" vertex="1">
          <mxGeometry x="600" y="-486" width="40" height="40" as="geometry" />
        </mxCell>
        <mxCell id="eSEaWndHcErj430hBIBG-61" value="" style="endArrow=none;html=1;rounded=0;entryX=0.5;entryY=1;entryDx=0;entryDy=0;fillColor=#fff2cc;strokeColor=#d6b656;" parent="1" target="eSEaWndHcErj430hBIBG-62" edge="1">
          <mxGeometry width="50" height="50" relative="1" as="geometry">
            <mxPoint x="452" y="-266" as="sourcePoint" />
            <mxPoint x="391" y="-346" as="targetPoint" />
          </mxGeometry>
        </mxCell>
        <mxCell id="eSEaWndHcErj430hBIBG-62" value="&lt;b&gt;&lt;br&gt;&lt;/b&gt;" style="ellipse;whiteSpace=wrap;html=1;aspect=fixed;fontSize=20;fillColor=#f0a30a;strokeColor=#BD7000;fontColor=#000000;" parent="1" vertex="1">
          <mxGeometry x="432" y="-486" width="40" height="40" as="geometry" />
        </mxCell>
        <mxCell id="eSEaWndHcErj430hBIBG-63" value="" style="endArrow=none;html=1;rounded=0;entryX=1;entryY=0.5;entryDx=0;entryDy=0;exitX=0;exitY=0.5;exitDx=0;exitDy=0;fillColor=#fff2cc;strokeColor=#d6b656;" parent="1" source="eSEaWndHcErj430hBIBG-66" target="eSEaWndHcErj430hBIBG-64" edge="1">
          <mxGeometry width="50" height="50" relative="1" as="geometry">
            <mxPoint x="432" y="-246" as="sourcePoint" />
            <mxPoint x="255" y="-310" as="targetPoint" />
          </mxGeometry>
        </mxCell>
        <mxCell id="eSEaWndHcErj430hBIBG-64" value="" style="ellipse;whiteSpace=wrap;html=1;aspect=fixed;fontSize=20;fillColor=#ffe6cc;strokeColor=#d79b00;" parent="1" vertex="1">
          <mxGeometry x="260" y="-266" width="40" height="40" as="geometry" />
        </mxCell>
        <mxCell id="eSEaWndHcErj430hBIBG-65" value="" style="endArrow=none;html=1;rounded=0;entryX=1;entryY=0.5;entryDx=0;entryDy=0;exitX=0;exitY=0.5;exitDx=0;exitDy=0;fillColor=#fff2cc;strokeColor=#d6b656;" parent="1" source="eSEaWndHcErj430hBIBG-67" target="eSEaWndHcErj430hBIBG-66" edge="1">
          <mxGeometry width="50" height="50" relative="1" as="geometry">
            <mxPoint x="588" y="-246" as="sourcePoint" />
            <mxPoint x="450" y="-234" as="targetPoint" />
          </mxGeometry>
        </mxCell>
        <mxCell id="eSEaWndHcErj430hBIBG-66" value="" style="ellipse;whiteSpace=wrap;html=1;aspect=fixed;fontSize=20;fillColor=#f0a30a;strokeColor=#BD7000;fontColor=#000000;" parent="1" vertex="1">
          <mxGeometry x="432" y="-269" width="36" height="36" as="geometry" />
        </mxCell>
        <mxCell id="eSEaWndHcErj430hBIBG-67" value="" style="ellipse;whiteSpace=wrap;html=1;aspect=fixed;fontSize=20;fillColor=#f0a30a;strokeColor=#BD7000;fontColor=#000000;" parent="1" vertex="1">
          <mxGeometry x="600" y="-266" width="40" height="40" as="geometry" />
        </mxCell>
        <mxCell id="eSEaWndHcErj430hBIBG-68" value="" style="endArrow=none;html=1;rounded=0;entryX=1;entryY=0.5;entryDx=0;entryDy=0;exitX=0;exitY=0.5;exitDx=0;exitDy=0;fillColor=#fff2cc;strokeColor=#d6b656;" parent="1" source="eSEaWndHcErj430hBIBG-62" target="eSEaWndHcErj430hBIBG-57" edge="1">
          <mxGeometry width="50" height="50" relative="1" as="geometry">
            <mxPoint x="292" y="-254" as="sourcePoint" />
            <mxPoint x="292" y="-434" as="targetPoint" />
          </mxGeometry>
        </mxCell>
        <mxCell id="eSEaWndHcErj430hBIBG-69" value="" style="endArrow=none;html=1;rounded=0;entryX=0;entryY=0.5;entryDx=0;entryDy=0;exitX=1;exitY=0.5;exitDx=0;exitDy=0;fillColor=#fff2cc;strokeColor=#d6b656;" parent="1" source="eSEaWndHcErj430hBIBG-62" target="eSEaWndHcErj430hBIBG-60" edge="1">
          <mxGeometry width="50" height="50" relative="1" as="geometry">
            <mxPoint x="304" y="-242" as="sourcePoint" />
            <mxPoint x="304" y="-422" as="targetPoint" />
          </mxGeometry>
        </mxCell>
        <mxCell id="eSEaWndHcErj430hBIBG-70" value="" style="endArrow=none;html=1;rounded=0;entryX=0.5;entryY=1;entryDx=0;entryDy=0;exitX=0;exitY=0.5;exitDx=0;exitDy=0;fillColor=#fff2cc;strokeColor=#d6b656;" parent="1" source="eSEaWndHcErj430hBIBG-64" target="eSEaWndHcErj430hBIBG-71" edge="1">
          <mxGeometry width="50" height="50" relative="1" as="geometry">
            <mxPoint x="292" y="-254" as="sourcePoint" />
            <mxPoint x="231" y="-334" as="targetPoint" />
          </mxGeometry>
        </mxCell>
        <mxCell id="eSEaWndHcErj430hBIBG-71" value="" style="ellipse;whiteSpace=wrap;html=1;aspect=fixed;fontSize=20;fillColor=#ffe6cc;strokeColor=#d79b00;" parent="1" vertex="1">
          <mxGeometry x="156" y="-384" width="40" height="40" as="geometry" />
        </mxCell>
        <mxCell id="eSEaWndHcErj430hBIBG-72" value="" style="line;strokeWidth=2;direction=south;html=1;" parent="1" vertex="1">
          <mxGeometry x="372" y="-504" height="160" as="geometry" />
        </mxCell>
        <mxCell id="eSEaWndHcErj430hBIBG-73" value="" style="endArrow=none;html=1;rounded=0;entryX=0.5;entryY=1;entryDx=0;entryDy=0;fillColor=#fff2cc;strokeColor=#d6b656;" parent="1" target="eSEaWndHcErj430hBIBG-74" edge="1">
          <mxGeometry width="50" height="50" relative="1" as="geometry">
            <mxPoint x="636" y="-254" as="sourcePoint" />
            <mxPoint x="571" y="-334" as="targetPoint" />
          </mxGeometry>
        </mxCell>
        <mxCell id="eSEaWndHcErj430hBIBG-74" value="" style="ellipse;whiteSpace=wrap;html=1;aspect=fixed;fontSize=20;fillColor=#ffe6cc;strokeColor=#d79b00;" parent="1" vertex="1">
          <mxGeometry x="696" y="-384" width="40" height="40" as="geometry" />
        </mxCell>
        <mxCell id="eSEaWndHcErj430hBIBG-75" value="" style="endArrow=none;html=1;rounded=0;entryX=0.5;entryY=1;entryDx=0;entryDy=0;fillColor=#fff2cc;strokeColor=#d6b656;" parent="1" target="eSEaWndHcErj430hBIBG-76" edge="1">
          <mxGeometry width="50" height="50" relative="1" as="geometry">
            <mxPoint x="464" y="-254" as="sourcePoint" />
            <mxPoint x="403" y="-334" as="targetPoint" />
          </mxGeometry>
        </mxCell>
        <mxCell id="eSEaWndHcErj430hBIBG-76" value="" style="ellipse;whiteSpace=wrap;html=1;aspect=fixed;fontSize=20;fillColor=#f0a30a;strokeColor=#BD7000;fontColor=#000000;" parent="1" vertex="1">
          <mxGeometry x="516" y="-384" width="40" height="40" as="geometry" />
        </mxCell>
        <mxCell id="eSEaWndHcErj430hBIBG-81" value="" style="ellipse;whiteSpace=wrap;html=1;aspect=fixed;fontSize=20;fillColor=#f0a30a;strokeColor=#BD7000;fontColor=#000000;" parent="1" vertex="1">
          <mxGeometry x="340" y="-384" width="40" height="40" as="geometry" />
        </mxCell>
        <mxCell id="eSEaWndHcErj430hBIBG-82" value="" style="endArrow=none;html=1;rounded=0;entryX=1;entryY=0.5;entryDx=0;entryDy=0;exitX=0;exitY=0.5;exitDx=0;exitDy=0;fillColor=#fff2cc;strokeColor=#d6b656;" parent="1" source="eSEaWndHcErj430hBIBG-76" target="eSEaWndHcErj430hBIBG-81" edge="1">
          <mxGeometry width="50" height="50" relative="1" as="geometry">
            <mxPoint x="304" y="-242" as="sourcePoint" />
            <mxPoint x="304" y="-422" as="targetPoint" />
          </mxGeometry>
        </mxCell>
        <mxCell id="eSEaWndHcErj430hBIBG-83" value="" style="endArrow=none;html=1;rounded=0;entryX=0;entryY=0.5;entryDx=0;entryDy=0;exitX=1;exitY=0.5;exitDx=0;exitDy=0;fillColor=#fff2cc;strokeColor=#d6b656;" parent="1" source="eSEaWndHcErj430hBIBG-76" target="eSEaWndHcErj430hBIBG-74" edge="1">
          <mxGeometry width="50" height="50" relative="1" as="geometry">
            <mxPoint x="316" y="-230" as="sourcePoint" />
            <mxPoint x="316" y="-410" as="targetPoint" />
          </mxGeometry>
        </mxCell>
        <mxCell id="eSEaWndHcErj430hBIBG-84" value="" style="endArrow=none;html=1;rounded=0;entryX=0;entryY=1;entryDx=0;entryDy=0;exitX=1;exitY=0;exitDx=0;exitDy=0;fillColor=#fff2cc;strokeColor=#d6b656;" parent="1" source="eSEaWndHcErj430hBIBG-71" target="eSEaWndHcErj430hBIBG-57" edge="1">
          <mxGeometry width="50" height="50" relative="1" as="geometry">
            <mxPoint x="300" y="-292" as="sourcePoint" />
            <mxPoint x="350" y="-342" as="targetPoint" />
          </mxGeometry>
        </mxCell>
        <mxCell id="eSEaWndHcErj430hBIBG-85" value="" style="endArrow=none;html=1;rounded=0;exitX=0;exitY=1;exitDx=0;exitDy=0;entryX=0.5;entryY=0;entryDx=0;entryDy=0;fillColor=#fff2cc;strokeColor=#d6b656;" parent="1" source="eSEaWndHcErj430hBIBG-62" target="eSEaWndHcErj430hBIBG-81" edge="1">
          <mxGeometry width="50" height="50" relative="1" as="geometry">
            <mxPoint x="300" y="-292" as="sourcePoint" />
            <mxPoint x="336" y="-366" as="targetPoint" />
          </mxGeometry>
        </mxCell>
        <mxCell id="eSEaWndHcErj430hBIBG-88" value="" style="endArrow=none;html=1;rounded=0;exitX=0.35;exitY=0;exitDx=0;exitDy=0;exitPerimeter=0;entryX=1;entryY=0.5;entryDx=0;entryDy=0;fillColor=#fff2cc;strokeColor=#d6b656;" parent="1" source="eSEaWndHcErj430hBIBG-74" target="eSEaWndHcErj430hBIBG-60" edge="1">
          <mxGeometry width="50" height="50" relative="1" as="geometry">
            <mxPoint x="244" y="-340" as="sourcePoint" />
            <mxPoint x="606" y="-452" as="targetPoint" />
          </mxGeometry>
        </mxCell>
        <mxCell id="eSEaWndHcErj430hBIBG-89" value="" style="endArrow=none;html=1;rounded=0;exitX=1;exitY=0;exitDx=0;exitDy=0;entryX=0;entryY=1;entryDx=0;entryDy=0;fillColor=#fff2cc;strokeColor=#d6b656;" parent="1" source="eSEaWndHcErj430hBIBG-64" target="eSEaWndHcErj430hBIBG-81" edge="1">
          <mxGeometry width="50" height="50" relative="1" as="geometry">
            <mxPoint x="256" y="-328" as="sourcePoint" />
            <mxPoint x="388" y="-316" as="targetPoint" />
          </mxGeometry>
        </mxCell>
        <mxCell id="eSEaWndHcErj430hBIBG-90" value="" style="endArrow=none;html=1;rounded=0;exitX=1;exitY=1;exitDx=0;exitDy=0;entryX=0;entryY=0;entryDx=0;entryDy=0;fillColor=#fff2cc;strokeColor=#d6b656;" parent="1" source="eSEaWndHcErj430hBIBG-76" target="eSEaWndHcErj430hBIBG-67" edge="1">
          <mxGeometry width="50" height="50" relative="1" as="geometry">
            <mxPoint x="268" y="-316" as="sourcePoint" />
            <mxPoint x="400" y="-304" as="targetPoint" />
          </mxGeometry>
        </mxCell>
        <mxCell id="eSEaWndHcErj430hBIBG-97" value="" style="endArrow=none;html=1;rounded=0;entryX=1;entryY=1;entryDx=0;entryDy=0;exitX=0;exitY=0;exitDx=0;exitDy=0;fillColor=#fff2cc;strokeColor=#d6b656;" parent="1" source="eSEaWndHcErj430hBIBG-66" target="eSEaWndHcErj430hBIBG-81" edge="1">
          <mxGeometry width="50" height="50" relative="1" as="geometry">
            <mxPoint x="252" y="-382" as="sourcePoint" />
            <mxPoint x="302" y="-432" as="targetPoint" />
          </mxGeometry>
        </mxCell>
        <mxCell id="eSEaWndHcErj430hBIBG-98" value="" style="endArrow=none;html=1;rounded=0;entryX=1;entryY=1;entryDx=0;entryDy=0;fillColor=#fff2cc;strokeColor=#d6b656;" parent="1" source="eSEaWndHcErj430hBIBG-76" target="eSEaWndHcErj430hBIBG-62" edge="1">
          <mxGeometry width="50" height="50" relative="1" as="geometry">
            <mxPoint x="480" y="-382" as="sourcePoint" />
            <mxPoint x="530" y="-432" as="targetPoint" />
          </mxGeometry>
        </mxCell>
        <mxCell id="eSEaWndHcErj430hBIBG-102" value="" style="whiteSpace=wrap;html=1;aspect=fixed;fillColor=#fad7ac;strokeColor=#b46504;" parent="1" vertex="1">
          <mxGeometry x="272" y="-100" width="80" height="80" as="geometry" />
        </mxCell>
        <mxCell id="eSEaWndHcErj430hBIBG-103" value="" style="whiteSpace=wrap;html=1;aspect=fixed;fillColor=#fad9d5;strokeColor=#ae4132;" parent="1" vertex="1">
          <mxGeometry x="580" y="-100" width="80" height="80" as="geometry" />
        </mxCell>
        <mxCell id="eSEaWndHcErj430hBIBG-104" value="" style="endArrow=none;html=1;rounded=0;exitX=0;exitY=0;exitDx=0;exitDy=0;entryX=1;entryY=1;entryDx=0;entryDy=0;fillColor=#ffe6cc;strokeColor=#d79b00;" parent="1" source="eSEaWndHcErj430hBIBG-102" target="eSEaWndHcErj430hBIBG-102" edge="1">
          <mxGeometry width="50" height="50" relative="1" as="geometry">
            <mxPoint x="582" y="50" as="sourcePoint" />
            <mxPoint x="632" as="targetPoint" />
            <Array as="points" />
          </mxGeometry>
        </mxCell>
        <mxCell id="eSEaWndHcErj430hBIBG-105" value="" style="endArrow=none;html=1;rounded=0;entryX=0;entryY=0;entryDx=0;entryDy=0;exitX=1;exitY=1;exitDx=0;exitDy=0;" parent="1" source="eSEaWndHcErj430hBIBG-103" target="eSEaWndHcErj430hBIBG-103" edge="1">
          <mxGeometry width="50" height="50" relative="1" as="geometry">
            <mxPoint x="763" y="72" as="sourcePoint" />
            <mxPoint x="813" y="22" as="targetPoint" />
          </mxGeometry>
        </mxCell>
        <mxCell id="eSEaWndHcErj430hBIBG-109" value="" style="endArrow=none;html=1;rounded=0;fillColor=#cdeb8b;strokeColor=#36393d;" parent="1" source="eSEaWndHcErj430hBIBG-119" edge="1">
          <mxGeometry width="50" height="50" relative="1" as="geometry">
            <mxPoint x="430.5" y="204" as="sourcePoint" />
            <mxPoint x="328.5" y="348" as="targetPoint" />
          </mxGeometry>
        </mxCell>
        <mxCell id="eSEaWndHcErj430hBIBG-111" value="" style="endArrow=none;html=1;rounded=0;entryX=0;entryY=1;entryDx=0;entryDy=0;exitX=0.5;exitY=0;exitDx=0;exitDy=0;fillColor=#cdeb8b;strokeColor=#36393d;" parent="1" source="eSEaWndHcErj430hBIBG-118" target="eSEaWndHcErj430hBIBG-120" edge="1">
          <mxGeometry width="50" height="50" relative="1" as="geometry">
            <mxPoint x="440.5" y="324" as="sourcePoint" />
            <mxPoint x="470.5" y="264" as="targetPoint" />
          </mxGeometry>
        </mxCell>
        <mxCell id="eSEaWndHcErj430hBIBG-112" value="" style="endArrow=none;html=1;rounded=0;entryX=1;entryY=1;entryDx=0;entryDy=0;fillColor=#cdeb8b;strokeColor=#36393d;" parent="1" source="eSEaWndHcErj430hBIBG-113" target="eSEaWndHcErj430hBIBG-123" edge="1">
          <mxGeometry width="50" height="50" relative="1" as="geometry">
            <mxPoint x="390.5" y="264" as="sourcePoint" />
            <mxPoint x="340.5" y="204" as="targetPoint" />
          </mxGeometry>
        </mxCell>
        <mxCell id="eSEaWndHcErj430hBIBG-114" value="" style="endArrow=none;html=1;rounded=0;fillColor=#cdeb8b;strokeColor=#36393d;" parent="1" target="eSEaWndHcErj430hBIBG-113" edge="1">
          <mxGeometry width="50" height="50" relative="1" as="geometry">
            <mxPoint x="390.5" y="264" as="sourcePoint" />
            <mxPoint x="340.5" y="204" as="targetPoint" />
          </mxGeometry>
        </mxCell>
        <mxCell id="eSEaWndHcErj430hBIBG-116" value="" style="endArrow=none;html=1;rounded=0;fillColor=#cdeb8b;strokeColor=#36393d;" parent="1" target="eSEaWndHcErj430hBIBG-115" edge="1">
          <mxGeometry width="50" height="50" relative="1" as="geometry">
            <mxPoint x="508.5" y="240" as="sourcePoint" />
            <mxPoint x="430.5" y="204" as="targetPoint" />
          </mxGeometry>
        </mxCell>
        <mxCell id="eSEaWndHcErj430hBIBG-115" value="" style="ellipse;whiteSpace=wrap;html=1;aspect=fixed;fillColor=#f0a30a;strokeColor=#BD7000;fontColor=#000000;" parent="1" vertex="1">
          <mxGeometry x="426" y="156" width="36" height="36" as="geometry" />
        </mxCell>
        <mxCell id="eSEaWndHcErj430hBIBG-117" value="" style="endArrow=none;html=1;rounded=0;entryX=1;entryY=1;entryDx=0;entryDy=0;exitX=0;exitY=0;exitDx=0;exitDy=0;fillColor=#cdeb8b;strokeColor=#36393d;" parent="1" source="eSEaWndHcErj430hBIBG-121" target="eSEaWndHcErj430hBIBG-119" edge="1">
          <mxGeometry width="50" height="50" relative="1" as="geometry">
            <mxPoint x="244.5" y="242" as="sourcePoint" />
            <mxPoint x="294.5" y="192" as="targetPoint" />
          </mxGeometry>
        </mxCell>
        <mxCell id="eSEaWndHcErj430hBIBG-118" value="" style="ellipse;whiteSpace=wrap;html=1;aspect=fixed;fillColor=#cdeb8b;strokeColor=#36393d;" parent="1" vertex="1">
          <mxGeometry x="472.5" y="336" width="36" height="36" as="geometry" />
        </mxCell>
        <mxCell id="eSEaWndHcErj430hBIBG-121" value="" style="ellipse;whiteSpace=wrap;html=1;aspect=fixed;fillColor=#cdeb8b;strokeColor=#36393d;" parent="1" vertex="1">
          <mxGeometry x="244" y="276" width="36" height="36" as="geometry" />
        </mxCell>
        <mxCell id="eSEaWndHcErj430hBIBG-122" value="" style="ellipse;whiteSpace=wrap;html=1;aspect=fixed;fillColor=#f0a30a;strokeColor=#BD7000;fontColor=#000000;" parent="1" vertex="1">
          <mxGeometry x="567.5" y="324" width="36" height="36" as="geometry" />
        </mxCell>
        <mxCell id="eSEaWndHcErj430hBIBG-123" value="" style="ellipse;whiteSpace=wrap;html=1;aspect=fixed;fillColor=#f0a30a;strokeColor=#BD7000;fontColor=#000000;" parent="1" vertex="1">
          <mxGeometry x="308.5" y="156" width="36" height="36" as="geometry" />
        </mxCell>
        <mxCell id="eSEaWndHcErj430hBIBG-124" value="" style="endArrow=none;html=1;rounded=0;fillColor=#cdeb8b;strokeColor=#36393d;" parent="1" source="eSEaWndHcErj430hBIBG-113" target="eSEaWndHcErj430hBIBG-119" edge="1">
          <mxGeometry width="50" height="50" relative="1" as="geometry">
            <mxPoint x="430.5" y="204" as="sourcePoint" />
            <mxPoint x="328.5" y="348" as="targetPoint" />
            <Array as="points" />
          </mxGeometry>
        </mxCell>
        <mxCell id="eSEaWndHcErj430hBIBG-119" value="" style="ellipse;whiteSpace=wrap;html=1;aspect=fixed;fillColor=#cdeb8b;strokeColor=#36393d;" parent="1" vertex="1">
          <mxGeometry x="316.5" y="336" width="36" height="36" as="geometry" />
        </mxCell>
        <mxCell id="eSEaWndHcErj430hBIBG-125" value="" style="endArrow=none;html=1;rounded=0;exitX=0;exitY=1;exitDx=0;exitDy=0;fillColor=#cdeb8b;strokeColor=#36393d;" parent="1" source="eSEaWndHcErj430hBIBG-115" target="eSEaWndHcErj430hBIBG-113" edge="1">
          <mxGeometry width="50" height="50" relative="1" as="geometry">
            <mxPoint x="430.5" y="204" as="sourcePoint" />
            <mxPoint x="343.5" y="339" as="targetPoint" />
            <Array as="points">
              <mxPoint x="388.5" y="264" />
            </Array>
          </mxGeometry>
        </mxCell>
        <mxCell id="eSEaWndHcErj430hBIBG-113" value="" style="ellipse;whiteSpace=wrap;html=1;aspect=fixed;fillColor=#f0a30a;strokeColor=#BD7000;fontColor=#000000;" parent="1" vertex="1">
          <mxGeometry x="373.5" y="240" width="36" height="36" as="geometry" />
        </mxCell>
        <mxCell id="eSEaWndHcErj430hBIBG-126" value="" style="endArrow=none;html=1;rounded=0;exitX=0;exitY=0;exitDx=0;exitDy=0;fillColor=#cdeb8b;strokeColor=#36393d;" parent="1" source="eSEaWndHcErj430hBIBG-122" target="eSEaWndHcErj430hBIBG-120" edge="1">
          <mxGeometry width="50" height="50" relative="1" as="geometry">
            <mxPoint x="510.5" y="324" as="sourcePoint" />
            <mxPoint x="451.5" y="190" as="targetPoint" />
          </mxGeometry>
        </mxCell>
        <mxCell id="eSEaWndHcErj430hBIBG-120" value="" style="ellipse;whiteSpace=wrap;html=1;aspect=fixed;fillColor=#cdeb8b;strokeColor=#36393d;" parent="1" vertex="1">
          <mxGeometry x="496.5" y="228" width="36" height="36" as="geometry" />
        </mxCell>
        <mxCell id="eSEaWndHcErj430hBIBG-127" value="" style="ellipse;whiteSpace=wrap;html=1;aspect=fixed;fillColor=#cdeb8b;strokeColor=#36393d;" parent="1" vertex="1">
          <mxGeometry x="628.5" y="216" width="36" height="36" as="geometry" />
        </mxCell>
        <mxCell id="eSEaWndHcErj430hBIBG-128" value="" style="endArrow=none;html=1;rounded=0;entryX=0.5;entryY=1;entryDx=0;entryDy=0;exitX=1;exitY=0;exitDx=0;exitDy=0;fillColor=#cdeb8b;strokeColor=#36393d;" parent="1" source="eSEaWndHcErj430hBIBG-122" target="eSEaWndHcErj430hBIBG-127" edge="1">
          <mxGeometry width="50" height="50" relative="1" as="geometry">
            <mxPoint x="244.5" y="242" as="sourcePoint" />
            <mxPoint x="294.5" y="192" as="targetPoint" />
          </mxGeometry>
        </mxCell>
        <mxCell id="UOlVn4s-BqFcu6fHOrDf-7" value="&lt;font style=&quot;font-size: 20px;&quot;&gt;Get the distance between all nodes&lt;/font&gt;" style="text;strokeColor=none;fillColor=none;html=1;align=center;verticalAlign=middle;whiteSpace=wrap;rounded=0;fontSize=16;" parent="1" vertex="1">
          <mxGeometry x="174.5" y="-775" width="490" height="30" as="geometry" />
        </mxCell>
        <mxCell id="UOlVn4s-BqFcu6fHOrDf-8" value="" style="endArrow=none;html=1;rounded=0;fontSize=12;startSize=8;endSize=8;curved=1;exitX=0.466;exitY=0.1;exitDx=0;exitDy=0;exitPerimeter=0;" parent="1" source="UOlVn4s-BqFcu6fHOrDf-7" edge="1">
          <mxGeometry width="50" height="50" relative="1" as="geometry">
            <mxPoint x="620" y="-733" as="sourcePoint" />
            <mxPoint x="403" y="-817" as="targetPoint" />
          </mxGeometry>
        </mxCell>
        <mxCell id="UOlVn4s-BqFcu6fHOrDf-9" value="" style="endArrow=classic;html=1;rounded=0;fontSize=12;startSize=8;endSize=8;curved=1;" parent="1" edge="1">
          <mxGeometry width="50" height="50" relative="1" as="geometry">
            <mxPoint x="403" y="-740" as="sourcePoint" />
            <mxPoint x="403" y="-707" as="targetPoint" />
          </mxGeometry>
        </mxCell>
        <mxCell id="UOlVn4s-BqFcu6fHOrDf-11" value="" style="endArrow=none;html=1;rounded=0;fontSize=12;startSize=8;endSize=8;curved=1;exitX=0.537;exitY=0.067;exitDx=0;exitDy=0;exitPerimeter=0;" parent="1" source="UOlVn4s-BqFcu6fHOrDf-7" edge="1">
          <mxGeometry width="50" height="50" relative="1" as="geometry">
            <mxPoint x="437.5" y="-776" as="sourcePoint" />
            <mxPoint x="437.5" y="-818" as="targetPoint" />
          </mxGeometry>
        </mxCell>
        <mxCell id="UOlVn4s-BqFcu6fHOrDf-12" value="" style="endArrow=none;html=1;rounded=0;fontSize=12;startSize=8;endSize=8;curved=1;exitX=0.615;exitY=0.076;exitDx=0;exitDy=0;exitPerimeter=0;" parent="1" source="UOlVn4s-BqFcu6fHOrDf-7" edge="1">
          <mxGeometry width="50" height="50" relative="1" as="geometry">
            <mxPoint x="476" y="-776" as="sourcePoint" />
            <mxPoint x="476" y="-818" as="targetPoint" />
          </mxGeometry>
        </mxCell>
        <mxCell id="UOlVn4s-BqFcu6fHOrDf-13" value="" style="endArrow=classic;html=1;rounded=0;fontSize=12;startSize=8;endSize=8;curved=1;" parent="1" edge="1">
          <mxGeometry width="50" height="50" relative="1" as="geometry">
            <mxPoint x="437.5" y="-740" as="sourcePoint" />
            <mxPoint x="437.5" y="-707" as="targetPoint" />
          </mxGeometry>
        </mxCell>
        <mxCell id="UOlVn4s-BqFcu6fHOrDf-14" value="" style="endArrow=classic;html=1;rounded=0;fontSize=12;startSize=8;endSize=8;curved=1;" parent="1" edge="1">
          <mxGeometry width="50" height="50" relative="1" as="geometry">
            <mxPoint x="476" y="-740" as="sourcePoint" />
            <mxPoint x="476" y="-707" as="targetPoint" />
          </mxGeometry>
        </mxCell>
        <mxCell id="UOlVn4s-BqFcu6fHOrDf-15" value="&lt;font style=&quot;font-size: 20px;&quot;&gt;Tree-to-Graph Transformation&lt;/font&gt;" style="text;strokeColor=none;fillColor=none;html=1;align=center;verticalAlign=middle;whiteSpace=wrap;rounded=0;fontSize=16;" parent="1" vertex="1">
          <mxGeometry x="160.5" y="-565" width="551" height="30" as="geometry" />
        </mxCell>
        <mxCell id="UOlVn4s-BqFcu6fHOrDf-16" value="" style="endArrow=classic;html=1;rounded=0;fontSize=12;startSize=8;endSize=8;curved=1;" parent="1" edge="1">
          <mxGeometry width="50" height="50" relative="1" as="geometry">
            <mxPoint x="437.5" y="-527" as="sourcePoint" />
            <mxPoint x="437.5" y="-494" as="targetPoint" />
          </mxGeometry>
        </mxCell>
        <mxCell id="UOlVn4s-BqFcu6fHOrDf-17" value="" style="endArrow=classic;html=1;rounded=0;fontSize=12;startSize=8;endSize=8;curved=1;" parent="1" edge="1">
          <mxGeometry width="50" height="50" relative="1" as="geometry">
            <mxPoint x="497" y="-526" as="sourcePoint" />
            <mxPoint x="476" y="-495" as="targetPoint" />
          </mxGeometry>
        </mxCell>
        <mxCell id="UOlVn4s-BqFcu6fHOrDf-18" value="" style="endArrow=classic;html=1;rounded=0;fontSize=12;startSize=8;endSize=8;curved=1;exitX=0.387;exitY=1.203;exitDx=0;exitDy=0;exitPerimeter=0;" parent="1" source="UOlVn4s-BqFcu6fHOrDf-15" edge="1">
          <mxGeometry width="50" height="50" relative="1" as="geometry">
            <mxPoint x="401.5" y="-525" as="sourcePoint" />
            <mxPoint x="401.5" y="-492" as="targetPoint" />
          </mxGeometry>
        </mxCell>
        <mxCell id="UOlVn4s-BqFcu6fHOrDf-19" value="" style="endArrow=none;html=1;rounded=0;fontSize=12;startSize=8;endSize=8;curved=1;exitX=0.466;exitY=0.1;exitDx=0;exitDy=0;exitPerimeter=0;" parent="1" edge="1">
          <mxGeometry width="50" height="50" relative="1" as="geometry">
            <mxPoint x="351.05" y="-565" as="sourcePoint" />
            <mxPoint x="323" y="-605" as="targetPoint" />
          </mxGeometry>
        </mxCell>
        <mxCell id="UOlVn4s-BqFcu6fHOrDf-20" value="" style="endArrow=none;html=1;rounded=0;fontSize=12;startSize=8;endSize=8;curved=1;exitX=0.466;exitY=0.1;exitDx=0;exitDy=0;exitPerimeter=0;" parent="1" edge="1">
          <mxGeometry width="50" height="50" relative="1" as="geometry">
            <mxPoint x="440" y="-565" as="sourcePoint" />
            <mxPoint x="440" y="-607" as="targetPoint" />
          </mxGeometry>
        </mxCell>
        <mxCell id="UOlVn4s-BqFcu6fHOrDf-21" value="" style="endArrow=none;html=1;rounded=0;fontSize=12;startSize=8;endSize=8;curved=1;exitX=0.466;exitY=0.1;exitDx=0;exitDy=0;exitPerimeter=0;" parent="1" edge="1">
          <mxGeometry width="50" height="50" relative="1" as="geometry">
            <mxPoint x="520" y="-565" as="sourcePoint" />
            <mxPoint x="546" y="-608" as="targetPoint" />
          </mxGeometry>
        </mxCell>
        <mxCell id="UOlVn4s-BqFcu6fHOrDf-22" value="" style="endArrow=classic;html=1;rounded=0;fontSize=12;startSize=8;endSize=8;curved=1;" parent="1" edge="1">
          <mxGeometry width="50" height="50" relative="1" as="geometry">
            <mxPoint x="312" y="-214" as="sourcePoint" />
            <mxPoint x="314" y="-114" as="targetPoint" />
          </mxGeometry>
        </mxCell>
        <mxCell id="UOlVn4s-BqFcu6fHOrDf-23" value="" style="endArrow=classic;html=1;rounded=0;fontSize=12;startSize=8;endSize=8;curved=1;" parent="1" edge="1">
          <mxGeometry width="50" height="50" relative="1" as="geometry">
            <mxPoint x="621" y="-212.62" as="sourcePoint" />
            <mxPoint x="623" y="-112.62" as="targetPoint" />
          </mxGeometry>
        </mxCell>
        <mxCell id="UOlVn4s-BqFcu6fHOrDf-24" value="&lt;font style=&quot;font-size: 20px;&quot;&gt;Modified Prims Algorithm&lt;/font&gt;" style="text;strokeColor=none;fillColor=none;html=1;align=center;verticalAlign=middle;whiteSpace=wrap;rounded=0;fontSize=16;" parent="1" vertex="1">
          <mxGeometry x="179" y="65" width="585" height="30" as="geometry" />
        </mxCell>
        <mxCell id="UOlVn4s-BqFcu6fHOrDf-25" value="" style="endArrow=classic;html=1;rounded=0;fontSize=12;startSize=8;endSize=8;curved=1;" parent="1" edge="1">
          <mxGeometry width="50" height="50" relative="1" as="geometry">
            <mxPoint x="463.5" y="101" as="sourcePoint" />
            <mxPoint x="463.5" y="134" as="targetPoint" />
          </mxGeometry>
        </mxCell>
        <mxCell id="UOlVn4s-BqFcu6fHOrDf-26" value="" style="endArrow=classic;html=1;rounded=0;fontSize=12;startSize=8;endSize=8;curved=1;" parent="1" edge="1">
          <mxGeometry width="50" height="50" relative="1" as="geometry">
            <mxPoint x="523" y="102" as="sourcePoint" />
            <mxPoint x="502" y="133" as="targetPoint" />
          </mxGeometry>
        </mxCell>
        <mxCell id="UOlVn4s-BqFcu6fHOrDf-27" value="" style="endArrow=classic;html=1;rounded=0;fontSize=12;startSize=8;endSize=8;curved=1;exitX=0.387;exitY=1.203;exitDx=0;exitDy=0;exitPerimeter=0;" parent="1" edge="1">
          <mxGeometry width="50" height="50" relative="1" as="geometry">
            <mxPoint x="400" y="99" as="sourcePoint" />
            <mxPoint x="427.5" y="136" as="targetPoint" />
          </mxGeometry>
        </mxCell>
        <mxCell id="UOlVn4s-BqFcu6fHOrDf-28" value="" style="endArrow=none;html=1;rounded=0;fontSize=12;startSize=8;endSize=8;curved=1;exitX=0.466;exitY=0.1;exitDx=0;exitDy=0;exitPerimeter=0;" parent="1" edge="1">
          <mxGeometry width="50" height="50" relative="1" as="geometry">
            <mxPoint x="377.05" y="63" as="sourcePoint" />
            <mxPoint x="349" y="23" as="targetPoint" />
          </mxGeometry>
        </mxCell>
        <mxCell id="UOlVn4s-BqFcu6fHOrDf-29" value="" style="endArrow=none;html=1;rounded=0;fontSize=12;startSize=8;endSize=8;curved=1;exitX=0.466;exitY=0.1;exitDx=0;exitDy=0;exitPerimeter=0;" parent="1" edge="1">
          <mxGeometry width="50" height="50" relative="1" as="geometry">
            <mxPoint x="466" y="63" as="sourcePoint" />
            <mxPoint x="466" y="21" as="targetPoint" />
          </mxGeometry>
        </mxCell>
        <mxCell id="UOlVn4s-BqFcu6fHOrDf-30" value="" style="endArrow=none;html=1;rounded=0;fontSize=12;startSize=8;endSize=8;curved=1;exitX=0.466;exitY=0.1;exitDx=0;exitDy=0;exitPerimeter=0;" parent="1" edge="1">
          <mxGeometry width="50" height="50" relative="1" as="geometry">
            <mxPoint x="546" y="63" as="sourcePoint" />
            <mxPoint x="572" y="20" as="targetPoint" />
          </mxGeometry>
        </mxCell>
        <mxCell id="UOlVn4s-BqFcu6fHOrDf-32" value="&lt;font style=&quot;font-size: 20px;&quot;&gt;Remove extra internal nodes&lt;/font&gt;" style="text;strokeColor=none;fillColor=none;html=1;align=center;verticalAlign=middle;whiteSpace=wrap;rounded=0;fontSize=16;" parent="1" vertex="1">
          <mxGeometry x="229.5" y="460" width="435" height="30" as="geometry" />
        </mxCell>
        <mxCell id="UOlVn4s-BqFcu6fHOrDf-33" value="" style="endArrow=classic;html=1;rounded=0;fontSize=12;startSize=8;endSize=8;curved=1;" parent="1" edge="1">
          <mxGeometry width="50" height="50" relative="1" as="geometry">
            <mxPoint x="447.5" y="497" as="sourcePoint" />
            <mxPoint x="447.5" y="530" as="targetPoint" />
          </mxGeometry>
        </mxCell>
        <mxCell id="UOlVn4s-BqFcu6fHOrDf-34" value="" style="endArrow=classic;html=1;rounded=0;fontSize=12;startSize=8;endSize=8;curved=1;" parent="1" edge="1">
          <mxGeometry width="50" height="50" relative="1" as="geometry">
            <mxPoint x="507" y="498" as="sourcePoint" />
            <mxPoint x="486" y="529" as="targetPoint" />
          </mxGeometry>
        </mxCell>
        <mxCell id="UOlVn4s-BqFcu6fHOrDf-35" value="" style="endArrow=classic;html=1;rounded=0;fontSize=12;startSize=8;endSize=8;curved=1;exitX=0.387;exitY=1.203;exitDx=0;exitDy=0;exitPerimeter=0;" parent="1" edge="1">
          <mxGeometry width="50" height="50" relative="1" as="geometry">
            <mxPoint x="384" y="495" as="sourcePoint" />
            <mxPoint x="411.5" y="532" as="targetPoint" />
          </mxGeometry>
        </mxCell>
        <mxCell id="UOlVn4s-BqFcu6fHOrDf-36" value="" style="endArrow=none;html=1;rounded=0;fontSize=12;startSize=8;endSize=8;curved=1;exitX=0.466;exitY=0.1;exitDx=0;exitDy=0;exitPerimeter=0;" parent="1" edge="1">
          <mxGeometry width="50" height="50" relative="1" as="geometry">
            <mxPoint x="361.05" y="459" as="sourcePoint" />
            <mxPoint x="333" y="419" as="targetPoint" />
          </mxGeometry>
        </mxCell>
        <mxCell id="UOlVn4s-BqFcu6fHOrDf-37" value="" style="endArrow=none;html=1;rounded=0;fontSize=12;startSize=8;endSize=8;curved=1;exitX=0.466;exitY=0.1;exitDx=0;exitDy=0;exitPerimeter=0;" parent="1" edge="1">
          <mxGeometry width="50" height="50" relative="1" as="geometry">
            <mxPoint x="450" y="459" as="sourcePoint" />
            <mxPoint x="450" y="417" as="targetPoint" />
          </mxGeometry>
        </mxCell>
        <mxCell id="UOlVn4s-BqFcu6fHOrDf-38" value="" style="endArrow=none;html=1;rounded=0;fontSize=12;startSize=8;endSize=8;curved=1;exitX=0.466;exitY=0.1;exitDx=0;exitDy=0;exitPerimeter=0;" parent="1" edge="1">
          <mxGeometry width="50" height="50" relative="1" as="geometry">
            <mxPoint x="530" y="459" as="sourcePoint" />
            <mxPoint x="556" y="416" as="targetPoint" />
          </mxGeometry>
        </mxCell>
        <mxCell id="UOlVn4s-BqFcu6fHOrDf-120" value="" style="endArrow=none;html=1;rounded=0;" parent="1" source="UOlVn4s-BqFcu6fHOrDf-128" edge="1">
          <mxGeometry width="50" height="50" relative="1" as="geometry">
            <mxPoint x="529.75" y="681" as="sourcePoint" />
            <mxPoint x="449.75" y="561" as="targetPoint" />
          </mxGeometry>
        </mxCell>
        <mxCell id="UOlVn4s-BqFcu6fHOrDf-121" value="" style="endArrow=none;html=1;rounded=0;" parent="1" source="UOlVn4s-BqFcu6fHOrDf-126" edge="1">
          <mxGeometry width="50" height="50" relative="1" as="geometry">
            <mxPoint x="459.75" y="681" as="sourcePoint" />
            <mxPoint x="489.75" y="621" as="targetPoint" />
          </mxGeometry>
        </mxCell>
        <mxCell id="UOlVn4s-BqFcu6fHOrDf-122" value="" style="endArrow=none;html=1;rounded=0;entryX=0.5;entryY=0;entryDx=0;entryDy=0;" parent="1" source="UOlVn4s-BqFcu6fHOrDf-124" target="UOlVn4s-BqFcu6fHOrDf-131" edge="1">
          <mxGeometry width="50" height="50" relative="1" as="geometry">
            <mxPoint x="409.75" y="621" as="sourcePoint" />
            <mxPoint x="439.75" y="681" as="targetPoint" />
          </mxGeometry>
        </mxCell>
        <mxCell id="UOlVn4s-BqFcu6fHOrDf-123" value="" style="endArrow=none;html=1;rounded=0;" parent="1" target="UOlVn4s-BqFcu6fHOrDf-124" edge="1">
          <mxGeometry width="50" height="50" relative="1" as="geometry">
            <mxPoint x="409.75" y="621" as="sourcePoint" />
            <mxPoint x="439.75" y="681" as="targetPoint" />
          </mxGeometry>
        </mxCell>
        <mxCell id="UOlVn4s-BqFcu6fHOrDf-124" value="&lt;b&gt;&lt;br&gt;&lt;/b&gt;" style="ellipse;whiteSpace=wrap;html=1;aspect=fixed;fontSize=20;fillColor=#f0a30a;strokeColor=#BD7000;fontColor=#000000;" parent="1" vertex="1">
          <mxGeometry x="395.75" y="609.5" width="30" height="30" as="geometry" />
        </mxCell>
        <mxCell id="UOlVn4s-BqFcu6fHOrDf-125" value="" style="endArrow=none;html=1;rounded=0;" parent="1" source="UOlVn4s-BqFcu6fHOrDf-133" target="UOlVn4s-BqFcu6fHOrDf-126" edge="1">
          <mxGeometry width="50" height="50" relative="1" as="geometry">
            <mxPoint x="459.75" y="681" as="sourcePoint" />
            <mxPoint x="489.75" y="621" as="targetPoint" />
          </mxGeometry>
        </mxCell>
        <mxCell id="UOlVn4s-BqFcu6fHOrDf-126" value="&lt;b&gt;&lt;br&gt;&lt;/b&gt;" style="ellipse;whiteSpace=wrap;html=1;aspect=fixed;fontSize=20;fillColor=#f0a30a;strokeColor=#BD7000;fontColor=#000000;" parent="1" vertex="1">
          <mxGeometry x="467.75" y="607" width="30" height="30" as="geometry" />
        </mxCell>
        <mxCell id="UOlVn4s-BqFcu6fHOrDf-127" value="" style="endArrow=none;html=1;rounded=0;exitX=0.5;exitY=0;exitDx=0;exitDy=0;" parent="1" source="UOlVn4s-BqFcu6fHOrDf-126" target="UOlVn4s-BqFcu6fHOrDf-128" edge="1">
          <mxGeometry width="50" height="50" relative="1" as="geometry">
            <mxPoint x="477.75" y="609" as="sourcePoint" />
            <mxPoint x="449.75" y="561" as="targetPoint" />
          </mxGeometry>
        </mxCell>
        <mxCell id="UOlVn4s-BqFcu6fHOrDf-128" value="&lt;b&gt;&lt;br&gt;&lt;/b&gt;" style="ellipse;whiteSpace=wrap;html=1;aspect=fixed;fontSize=20;fillColor=#f0a30a;strokeColor=#BD7000;fontColor=#000000;" parent="1" vertex="1">
          <mxGeometry x="428.75" y="550" width="30" height="30" as="geometry" />
        </mxCell>
        <mxCell id="UOlVn4s-BqFcu6fHOrDf-129" value="" style="endArrow=none;html=1;rounded=0;fontSize=12;startSize=8;endSize=8;curved=1;exitX=1;exitY=1;exitDx=0;exitDy=0;entryX=0.5;entryY=0;entryDx=0;entryDy=0;" parent="1" source="UOlVn4s-BqFcu6fHOrDf-126" target="UOlVn4s-BqFcu6fHOrDf-134" edge="1">
          <mxGeometry width="50" height="50" relative="1" as="geometry">
            <mxPoint x="468.75" y="635" as="sourcePoint" />
            <mxPoint x="525.75" y="679" as="targetPoint" />
          </mxGeometry>
        </mxCell>
        <mxCell id="UOlVn4s-BqFcu6fHOrDf-130" value="" style="ellipse;whiteSpace=wrap;html=1;aspect=fixed;fontSize=20;fillColor=#ffe6cc;strokeColor=#d79b00;" parent="1" vertex="1">
          <mxGeometry x="365.75" y="672" width="25" height="25" as="geometry" />
        </mxCell>
        <mxCell id="UOlVn4s-BqFcu6fHOrDf-131" value="" style="ellipse;whiteSpace=wrap;html=1;aspect=fixed;fontSize=20;fillColor=#ffe6cc;strokeColor=#d79b00;" parent="1" vertex="1">
          <mxGeometry x="416.75" y="672" width="25" height="25" as="geometry" />
        </mxCell>
        <mxCell id="UOlVn4s-BqFcu6fHOrDf-132" value="" style="endArrow=none;html=1;rounded=0;" parent="1" target="UOlVn4s-BqFcu6fHOrDf-133" edge="1">
          <mxGeometry width="50" height="50" relative="1" as="geometry">
            <mxPoint x="459.75" y="681" as="sourcePoint" />
            <mxPoint x="480.75" y="640" as="targetPoint" />
          </mxGeometry>
        </mxCell>
        <mxCell id="UOlVn4s-BqFcu6fHOrDf-133" value="" style="ellipse;whiteSpace=wrap;html=1;aspect=fixed;fontSize=20;fillColor=#ffe6cc;strokeColor=#d79b00;" parent="1" vertex="1">
          <mxGeometry x="448.75" y="672" width="25" height="25" as="geometry" />
        </mxCell>
        <mxCell id="UOlVn4s-BqFcu6fHOrDf-134" value="" style="ellipse;whiteSpace=wrap;html=1;aspect=fixed;fontSize=20;fillColor=#ffe6cc;strokeColor=#d79b00;" parent="1" vertex="1">
          <mxGeometry x="509.25" y="672" width="25" height="25" as="geometry" />
        </mxCell>
        <mxCell id="UOlVn4s-BqFcu6fHOrDf-135" value="" style="endArrow=none;html=1;rounded=0;fontSize=12;startSize=8;endSize=8;curved=1;entryX=0;entryY=1;entryDx=0;entryDy=0;exitX=0.5;exitY=0;exitDx=0;exitDy=0;" parent="1" source="UOlVn4s-BqFcu6fHOrDf-124" target="UOlVn4s-BqFcu6fHOrDf-128" edge="1">
          <mxGeometry width="50" height="50" relative="1" as="geometry">
            <mxPoint x="437.75" y="626" as="sourcePoint" />
            <mxPoint x="487.75" y="576" as="targetPoint" />
          </mxGeometry>
        </mxCell>
        <mxCell id="UOlVn4s-BqFcu6fHOrDf-136" value="" style="endArrow=none;html=1;rounded=0;fontSize=12;startSize=8;endSize=8;curved=1;entryX=0;entryY=1;entryDx=0;entryDy=0;exitX=0.5;exitY=0;exitDx=0;exitDy=0;" parent="1" source="UOlVn4s-BqFcu6fHOrDf-130" target="UOlVn4s-BqFcu6fHOrDf-124" edge="1">
          <mxGeometry width="50" height="50" relative="1" as="geometry">
            <mxPoint x="458.75" y="619" as="sourcePoint" />
            <mxPoint x="508.75" y="569" as="targetPoint" />
          </mxGeometry>
        </mxCell>
        <mxCell id="UOlVn4s-BqFcu6fHOrDf-137" value="Frequency Matrix" style="text;strokeColor=none;fillColor=none;html=1;align=center;verticalAlign=middle;whiteSpace=wrap;rounded=0;fontSize=16;" parent="1" vertex="1">
          <mxGeometry x="484.5" y="-20" width="271" height="30" as="geometry" />
        </mxCell>
        <mxCell id="UOlVn4s-BqFcu6fHOrDf-138" value="Distance Matrix" style="text;strokeColor=none;fillColor=none;html=1;align=center;verticalAlign=middle;whiteSpace=wrap;rounded=0;fontSize=16;" parent="1" vertex="1">
          <mxGeometry x="174.5" y="-20" width="271" height="30" as="geometry" />
        </mxCell>
        <mxCell id="UOlVn4s-BqFcu6fHOrDf-140" value="" style="group" parent="1" vertex="1" connectable="0">
          <mxGeometry x="171.75" y="-976.5" width="579" height="199" as="geometry" />
        </mxCell>
        <mxCell id="eSEaWndHcErj430hBIBG-3" value="" style="endArrow=none;html=1;rounded=0;" parent="UOlVn4s-BqFcu6fHOrDf-140" source="UOlVn4s-BqFcu6fHOrDf-52" edge="1">
          <mxGeometry width="50" height="50" relative="1" as="geometry">
            <mxPoint x="164" y="131" as="sourcePoint" />
            <mxPoint x="84" y="11" as="targetPoint" />
          </mxGeometry>
        </mxCell>
        <mxCell id="eSEaWndHcErj430hBIBG-4" value="" style="endArrow=none;html=1;rounded=0;" parent="UOlVn4s-BqFcu6fHOrDf-140" source="UOlVn4s-BqFcu6fHOrDf-42" edge="1">
          <mxGeometry width="50" height="50" relative="1" as="geometry">
            <mxPoint x="94" y="131" as="sourcePoint" />
            <mxPoint x="124" y="71" as="targetPoint" />
          </mxGeometry>
        </mxCell>
        <mxCell id="UOlVn4s-BqFcu6fHOrDf-40" value="" style="endArrow=none;html=1;rounded=0;" parent="UOlVn4s-BqFcu6fHOrDf-140" target="UOlVn4s-BqFcu6fHOrDf-39" edge="1">
          <mxGeometry width="50" height="50" relative="1" as="geometry">
            <mxPoint x="44" y="71" as="sourcePoint" />
            <mxPoint x="74" y="131" as="targetPoint" />
          </mxGeometry>
        </mxCell>
        <mxCell id="UOlVn4s-BqFcu6fHOrDf-39" value="&lt;b&gt;&lt;br&gt;&lt;/b&gt;" style="ellipse;whiteSpace=wrap;html=1;aspect=fixed;fontSize=20;fillColor=#f0a30a;strokeColor=#BD7000;fontColor=#000000;" parent="UOlVn4s-BqFcu6fHOrDf-140" vertex="1">
          <mxGeometry x="30" y="59.5" width="30" height="30" as="geometry" />
        </mxCell>
        <mxCell id="UOlVn4s-BqFcu6fHOrDf-42" value="&lt;b&gt;&lt;br&gt;&lt;/b&gt;" style="ellipse;whiteSpace=wrap;html=1;aspect=fixed;fontSize=20;fillColor=#f0a30a;strokeColor=#BD7000;fontColor=#000000;" parent="UOlVn4s-BqFcu6fHOrDf-140" vertex="1">
          <mxGeometry x="102" y="57" width="30" height="30" as="geometry" />
        </mxCell>
        <mxCell id="UOlVn4s-BqFcu6fHOrDf-53" value="" style="endArrow=none;html=1;rounded=0;exitX=0.5;exitY=0;exitDx=0;exitDy=0;" parent="UOlVn4s-BqFcu6fHOrDf-140" source="UOlVn4s-BqFcu6fHOrDf-42" target="UOlVn4s-BqFcu6fHOrDf-52" edge="1">
          <mxGeometry width="50" height="50" relative="1" as="geometry">
            <mxPoint x="112" y="59" as="sourcePoint" />
            <mxPoint x="84" y="11" as="targetPoint" />
          </mxGeometry>
        </mxCell>
        <mxCell id="UOlVn4s-BqFcu6fHOrDf-52" value="&lt;b&gt;&lt;br&gt;&lt;/b&gt;" style="ellipse;whiteSpace=wrap;html=1;aspect=fixed;fontSize=20;fillColor=#f0a30a;strokeColor=#BD7000;fontColor=#000000;" parent="UOlVn4s-BqFcu6fHOrDf-140" vertex="1">
          <mxGeometry x="63" width="30" height="30" as="geometry" />
        </mxCell>
        <mxCell id="UOlVn4s-BqFcu6fHOrDf-57" value="" style="endArrow=none;html=1;rounded=0;fontSize=12;startSize=8;endSize=8;curved=1;exitX=1;exitY=1;exitDx=0;exitDy=0;entryX=0.5;entryY=0;entryDx=0;entryDy=0;" parent="UOlVn4s-BqFcu6fHOrDf-140" source="UOlVn4s-BqFcu6fHOrDf-42" target="UOlVn4s-BqFcu6fHOrDf-65" edge="1">
          <mxGeometry width="50" height="50" relative="1" as="geometry">
            <mxPoint x="103" y="85" as="sourcePoint" />
            <mxPoint x="160" y="129" as="targetPoint" />
          </mxGeometry>
        </mxCell>
        <mxCell id="UOlVn4s-BqFcu6fHOrDf-61" value="" style="ellipse;whiteSpace=wrap;html=1;aspect=fixed;fontSize=20;fillColor=#ffe6cc;strokeColor=#d79b00;" parent="UOlVn4s-BqFcu6fHOrDf-140" vertex="1">
          <mxGeometry y="122" width="25" height="25" as="geometry" />
        </mxCell>
        <mxCell id="UOlVn4s-BqFcu6fHOrDf-62" value="" style="ellipse;whiteSpace=wrap;html=1;aspect=fixed;fontSize=20;fillColor=#ffe6cc;strokeColor=#d79b00;" parent="UOlVn4s-BqFcu6fHOrDf-140" vertex="1">
          <mxGeometry x="51" y="122" width="25" height="25" as="geometry" />
        </mxCell>
        <mxCell id="eSEaWndHcErj430hBIBG-5" value="" style="endArrow=none;html=1;rounded=0;entryX=0.5;entryY=0;entryDx=0;entryDy=0;" parent="UOlVn4s-BqFcu6fHOrDf-140" source="UOlVn4s-BqFcu6fHOrDf-39" target="UOlVn4s-BqFcu6fHOrDf-62" edge="1">
          <mxGeometry width="50" height="50" relative="1" as="geometry">
            <mxPoint x="44" y="71" as="sourcePoint" />
            <mxPoint x="74" y="131" as="targetPoint" />
          </mxGeometry>
        </mxCell>
        <mxCell id="UOlVn4s-BqFcu6fHOrDf-64" value="" style="endArrow=none;html=1;rounded=0;" parent="UOlVn4s-BqFcu6fHOrDf-140" target="UOlVn4s-BqFcu6fHOrDf-63" edge="1">
          <mxGeometry width="50" height="50" relative="1" as="geometry">
            <mxPoint x="94" y="131" as="sourcePoint" />
            <mxPoint x="115" y="90" as="targetPoint" />
          </mxGeometry>
        </mxCell>
        <mxCell id="UOlVn4s-BqFcu6fHOrDf-63" value="" style="ellipse;whiteSpace=wrap;html=1;aspect=fixed;fontSize=20;fillColor=#ffe6cc;strokeColor=#d79b00;" parent="UOlVn4s-BqFcu6fHOrDf-140" vertex="1">
          <mxGeometry x="83" y="122" width="25" height="25" as="geometry" />
        </mxCell>
        <mxCell id="UOlVn4s-BqFcu6fHOrDf-65" value="" style="ellipse;whiteSpace=wrap;html=1;aspect=fixed;fontSize=20;fillColor=#ffe6cc;strokeColor=#d79b00;" parent="UOlVn4s-BqFcu6fHOrDf-140" vertex="1">
          <mxGeometry x="143.5" y="122" width="25" height="25" as="geometry" />
        </mxCell>
        <mxCell id="UOlVn4s-BqFcu6fHOrDf-43" value="" style="endArrow=none;html=1;rounded=0;" parent="UOlVn4s-BqFcu6fHOrDf-140" source="UOlVn4s-BqFcu6fHOrDf-63" target="UOlVn4s-BqFcu6fHOrDf-42" edge="1">
          <mxGeometry width="50" height="50" relative="1" as="geometry">
            <mxPoint x="94" y="131" as="sourcePoint" />
            <mxPoint x="124" y="71" as="targetPoint" />
          </mxGeometry>
        </mxCell>
        <mxCell id="UOlVn4s-BqFcu6fHOrDf-67" value="" style="endArrow=none;html=1;rounded=0;fontSize=12;startSize=8;endSize=8;curved=1;entryX=0;entryY=1;entryDx=0;entryDy=0;exitX=0.5;exitY=0;exitDx=0;exitDy=0;" parent="UOlVn4s-BqFcu6fHOrDf-140" source="UOlVn4s-BqFcu6fHOrDf-39" target="UOlVn4s-BqFcu6fHOrDf-52" edge="1">
          <mxGeometry width="50" height="50" relative="1" as="geometry">
            <mxPoint x="72" y="76" as="sourcePoint" />
            <mxPoint x="122" y="26" as="targetPoint" />
          </mxGeometry>
        </mxCell>
        <mxCell id="UOlVn4s-BqFcu6fHOrDf-68" value="" style="endArrow=none;html=1;rounded=0;fontSize=12;startSize=8;endSize=8;curved=1;entryX=0;entryY=1;entryDx=0;entryDy=0;exitX=0.5;exitY=0;exitDx=0;exitDy=0;" parent="UOlVn4s-BqFcu6fHOrDf-140" target="UOlVn4s-BqFcu6fHOrDf-39" edge="1">
          <mxGeometry width="50" height="50" relative="1" as="geometry">
            <mxPoint x="12.5" y="122" as="sourcePoint" />
            <mxPoint x="143" y="19" as="targetPoint" />
          </mxGeometry>
        </mxCell>
        <mxCell id="UOlVn4s-BqFcu6fHOrDf-86" value="" style="endArrow=none;html=1;rounded=0;" parent="UOlVn4s-BqFcu6fHOrDf-140" source="UOlVn4s-BqFcu6fHOrDf-94" edge="1">
          <mxGeometry width="50" height="50" relative="1" as="geometry">
            <mxPoint x="380" y="131" as="sourcePoint" />
            <mxPoint x="300" y="11" as="targetPoint" />
          </mxGeometry>
        </mxCell>
        <mxCell id="UOlVn4s-BqFcu6fHOrDf-87" value="" style="endArrow=none;html=1;rounded=0;" parent="UOlVn4s-BqFcu6fHOrDf-140" source="UOlVn4s-BqFcu6fHOrDf-92" edge="1">
          <mxGeometry width="50" height="50" relative="1" as="geometry">
            <mxPoint x="310" y="131" as="sourcePoint" />
            <mxPoint x="340" y="71" as="targetPoint" />
          </mxGeometry>
        </mxCell>
        <mxCell id="UOlVn4s-BqFcu6fHOrDf-89" value="" style="endArrow=none;html=1;rounded=0;" parent="UOlVn4s-BqFcu6fHOrDf-140" target="UOlVn4s-BqFcu6fHOrDf-90" edge="1">
          <mxGeometry width="50" height="50" relative="1" as="geometry">
            <mxPoint x="260" y="71" as="sourcePoint" />
            <mxPoint x="290" y="131" as="targetPoint" />
          </mxGeometry>
        </mxCell>
        <mxCell id="UOlVn4s-BqFcu6fHOrDf-90" value="&lt;b&gt;&lt;br&gt;&lt;/b&gt;" style="ellipse;whiteSpace=wrap;html=1;aspect=fixed;fontSize=20;fillColor=#f0a30a;strokeColor=#BD7000;fontColor=#000000;" parent="UOlVn4s-BqFcu6fHOrDf-140" vertex="1">
          <mxGeometry x="246" y="59.5" width="30" height="30" as="geometry" />
        </mxCell>
        <mxCell id="UOlVn4s-BqFcu6fHOrDf-92" value="&lt;b&gt;&lt;br&gt;&lt;/b&gt;" style="ellipse;whiteSpace=wrap;html=1;aspect=fixed;fontSize=20;fillColor=#f0a30a;strokeColor=#BD7000;fontColor=#000000;" parent="UOlVn4s-BqFcu6fHOrDf-140" vertex="1">
          <mxGeometry x="318" y="57" width="30" height="30" as="geometry" />
        </mxCell>
        <mxCell id="UOlVn4s-BqFcu6fHOrDf-93" value="" style="endArrow=none;html=1;rounded=0;exitX=0.5;exitY=0;exitDx=0;exitDy=0;" parent="UOlVn4s-BqFcu6fHOrDf-140" source="UOlVn4s-BqFcu6fHOrDf-92" target="UOlVn4s-BqFcu6fHOrDf-94" edge="1">
          <mxGeometry width="50" height="50" relative="1" as="geometry">
            <mxPoint x="328" y="59" as="sourcePoint" />
            <mxPoint x="300" y="11" as="targetPoint" />
          </mxGeometry>
        </mxCell>
        <mxCell id="UOlVn4s-BqFcu6fHOrDf-94" value="&lt;b&gt;&lt;br&gt;&lt;/b&gt;" style="ellipse;whiteSpace=wrap;html=1;aspect=fixed;fontSize=20;fillColor=#f0a30a;strokeColor=#BD7000;fontColor=#000000;" parent="UOlVn4s-BqFcu6fHOrDf-140" vertex="1">
          <mxGeometry x="279" width="30" height="30" as="geometry" />
        </mxCell>
        <mxCell id="UOlVn4s-BqFcu6fHOrDf-95" value="" style="endArrow=none;html=1;rounded=0;fontSize=12;startSize=8;endSize=8;curved=1;exitX=1;exitY=1;exitDx=0;exitDy=0;entryX=0.5;entryY=0;entryDx=0;entryDy=0;" parent="UOlVn4s-BqFcu6fHOrDf-140" source="UOlVn4s-BqFcu6fHOrDf-92" target="UOlVn4s-BqFcu6fHOrDf-100" edge="1">
          <mxGeometry width="50" height="50" relative="1" as="geometry">
            <mxPoint x="319" y="85" as="sourcePoint" />
            <mxPoint x="376" y="129" as="targetPoint" />
          </mxGeometry>
        </mxCell>
        <mxCell id="UOlVn4s-BqFcu6fHOrDf-96" value="" style="ellipse;whiteSpace=wrap;html=1;aspect=fixed;fontSize=20;fillColor=#ffe6cc;strokeColor=#d79b00;" parent="UOlVn4s-BqFcu6fHOrDf-140" vertex="1">
          <mxGeometry x="216" y="122" width="25" height="25" as="geometry" />
        </mxCell>
        <mxCell id="UOlVn4s-BqFcu6fHOrDf-97" value="" style="ellipse;whiteSpace=wrap;html=1;aspect=fixed;fontSize=20;fillColor=#ffe6cc;strokeColor=#d79b00;" parent="UOlVn4s-BqFcu6fHOrDf-140" vertex="1">
          <mxGeometry x="267" y="122" width="25" height="25" as="geometry" />
        </mxCell>
        <mxCell id="UOlVn4s-BqFcu6fHOrDf-98" value="" style="endArrow=none;html=1;rounded=0;" parent="UOlVn4s-BqFcu6fHOrDf-140" target="UOlVn4s-BqFcu6fHOrDf-99" edge="1">
          <mxGeometry width="50" height="50" relative="1" as="geometry">
            <mxPoint x="310" y="131" as="sourcePoint" />
            <mxPoint x="331" y="90" as="targetPoint" />
          </mxGeometry>
        </mxCell>
        <mxCell id="UOlVn4s-BqFcu6fHOrDf-99" value="" style="ellipse;whiteSpace=wrap;html=1;aspect=fixed;fontSize=20;fillColor=#ffe6cc;strokeColor=#d79b00;" parent="UOlVn4s-BqFcu6fHOrDf-140" vertex="1">
          <mxGeometry x="299" y="122" width="25" height="25" as="geometry" />
        </mxCell>
        <mxCell id="UOlVn4s-BqFcu6fHOrDf-100" value="" style="ellipse;whiteSpace=wrap;html=1;aspect=fixed;fontSize=20;fillColor=#ffe6cc;strokeColor=#d79b00;" parent="UOlVn4s-BqFcu6fHOrDf-140" vertex="1">
          <mxGeometry x="359.5" y="122" width="25" height="25" as="geometry" />
        </mxCell>
        <mxCell id="UOlVn4s-BqFcu6fHOrDf-88" value="" style="endArrow=none;html=1;rounded=0;entryX=0.5;entryY=0;entryDx=0;entryDy=0;" parent="UOlVn4s-BqFcu6fHOrDf-140" source="UOlVn4s-BqFcu6fHOrDf-90" target="UOlVn4s-BqFcu6fHOrDf-97" edge="1">
          <mxGeometry width="50" height="50" relative="1" as="geometry">
            <mxPoint x="260" y="71" as="sourcePoint" />
            <mxPoint x="290" y="131" as="targetPoint" />
          </mxGeometry>
        </mxCell>
        <mxCell id="UOlVn4s-BqFcu6fHOrDf-101" value="" style="endArrow=none;html=1;rounded=0;fontSize=12;startSize=8;endSize=8;curved=1;entryX=0;entryY=1;entryDx=0;entryDy=0;exitX=0.5;exitY=0;exitDx=0;exitDy=0;" parent="UOlVn4s-BqFcu6fHOrDf-140" source="UOlVn4s-BqFcu6fHOrDf-90" target="UOlVn4s-BqFcu6fHOrDf-94" edge="1">
          <mxGeometry width="50" height="50" relative="1" as="geometry">
            <mxPoint x="288" y="76" as="sourcePoint" />
            <mxPoint x="338" y="26" as="targetPoint" />
          </mxGeometry>
        </mxCell>
        <mxCell id="UOlVn4s-BqFcu6fHOrDf-91" value="" style="endArrow=none;html=1;rounded=0;" parent="UOlVn4s-BqFcu6fHOrDf-140" source="UOlVn4s-BqFcu6fHOrDf-99" target="UOlVn4s-BqFcu6fHOrDf-92" edge="1">
          <mxGeometry width="50" height="50" relative="1" as="geometry">
            <mxPoint x="310" y="131" as="sourcePoint" />
            <mxPoint x="340" y="71" as="targetPoint" />
          </mxGeometry>
        </mxCell>
        <mxCell id="UOlVn4s-BqFcu6fHOrDf-102" value="" style="endArrow=none;html=1;rounded=0;fontSize=12;startSize=8;endSize=8;curved=1;entryX=0;entryY=1;entryDx=0;entryDy=0;exitX=0.5;exitY=0;exitDx=0;exitDy=0;" parent="UOlVn4s-BqFcu6fHOrDf-140" source="UOlVn4s-BqFcu6fHOrDf-96" target="UOlVn4s-BqFcu6fHOrDf-90" edge="1">
          <mxGeometry width="50" height="50" relative="1" as="geometry">
            <mxPoint x="309" y="69" as="sourcePoint" />
            <mxPoint x="359" y="19" as="targetPoint" />
          </mxGeometry>
        </mxCell>
        <mxCell id="UOlVn4s-BqFcu6fHOrDf-103" value="" style="endArrow=none;html=1;rounded=0;" parent="UOlVn4s-BqFcu6fHOrDf-140" source="UOlVn4s-BqFcu6fHOrDf-111" edge="1">
          <mxGeometry width="50" height="50" relative="1" as="geometry">
            <mxPoint x="572" y="131" as="sourcePoint" />
            <mxPoint x="492" y="11" as="targetPoint" />
          </mxGeometry>
        </mxCell>
        <mxCell id="UOlVn4s-BqFcu6fHOrDf-104" value="" style="endArrow=none;html=1;rounded=0;" parent="UOlVn4s-BqFcu6fHOrDf-140" source="UOlVn4s-BqFcu6fHOrDf-109" edge="1">
          <mxGeometry width="50" height="50" relative="1" as="geometry">
            <mxPoint x="502" y="131" as="sourcePoint" />
            <mxPoint x="532" y="71" as="targetPoint" />
          </mxGeometry>
        </mxCell>
        <mxCell id="UOlVn4s-BqFcu6fHOrDf-106" value="" style="endArrow=none;html=1;rounded=0;" parent="UOlVn4s-BqFcu6fHOrDf-140" target="UOlVn4s-BqFcu6fHOrDf-107" edge="1">
          <mxGeometry width="50" height="50" relative="1" as="geometry">
            <mxPoint x="452" y="71" as="sourcePoint" />
            <mxPoint x="482" y="131" as="targetPoint" />
          </mxGeometry>
        </mxCell>
        <mxCell id="UOlVn4s-BqFcu6fHOrDf-107" value="&lt;b&gt;&lt;br&gt;&lt;/b&gt;" style="ellipse;whiteSpace=wrap;html=1;aspect=fixed;fontSize=20;fillColor=#f0a30a;strokeColor=#BD7000;fontColor=#000000;" parent="UOlVn4s-BqFcu6fHOrDf-140" vertex="1">
          <mxGeometry x="438" y="59.5" width="30" height="30" as="geometry" />
        </mxCell>
        <mxCell id="UOlVn4s-BqFcu6fHOrDf-109" value="&lt;b&gt;&lt;br&gt;&lt;/b&gt;" style="ellipse;whiteSpace=wrap;html=1;aspect=fixed;fontSize=20;fillColor=#f0a30a;strokeColor=#BD7000;fontColor=#000000;" parent="UOlVn4s-BqFcu6fHOrDf-140" vertex="1">
          <mxGeometry x="510" y="57" width="30" height="30" as="geometry" />
        </mxCell>
        <mxCell id="UOlVn4s-BqFcu6fHOrDf-110" value="" style="endArrow=none;html=1;rounded=0;exitX=0.5;exitY=0;exitDx=0;exitDy=0;" parent="UOlVn4s-BqFcu6fHOrDf-140" source="UOlVn4s-BqFcu6fHOrDf-109" target="UOlVn4s-BqFcu6fHOrDf-111" edge="1">
          <mxGeometry width="50" height="50" relative="1" as="geometry">
            <mxPoint x="520" y="59" as="sourcePoint" />
            <mxPoint x="492" y="11" as="targetPoint" />
          </mxGeometry>
        </mxCell>
        <mxCell id="UOlVn4s-BqFcu6fHOrDf-111" value="&lt;b&gt;&lt;br&gt;&lt;/b&gt;" style="ellipse;whiteSpace=wrap;html=1;aspect=fixed;fontSize=20;fillColor=#f0a30a;strokeColor=#BD7000;fontColor=#000000;" parent="UOlVn4s-BqFcu6fHOrDf-140" vertex="1">
          <mxGeometry x="471" width="30" height="30" as="geometry" />
        </mxCell>
        <mxCell id="UOlVn4s-BqFcu6fHOrDf-112" value="" style="endArrow=none;html=1;rounded=0;fontSize=12;startSize=8;endSize=8;curved=1;exitX=1;exitY=1;exitDx=0;exitDy=0;entryX=0.5;entryY=0;entryDx=0;entryDy=0;" parent="UOlVn4s-BqFcu6fHOrDf-140" source="UOlVn4s-BqFcu6fHOrDf-109" target="UOlVn4s-BqFcu6fHOrDf-117" edge="1">
          <mxGeometry width="50" height="50" relative="1" as="geometry">
            <mxPoint x="511" y="85" as="sourcePoint" />
            <mxPoint x="568" y="129" as="targetPoint" />
          </mxGeometry>
        </mxCell>
        <mxCell id="UOlVn4s-BqFcu6fHOrDf-113" value="" style="ellipse;whiteSpace=wrap;html=1;aspect=fixed;fontSize=20;fillColor=#ffe6cc;strokeColor=#d79b00;" parent="UOlVn4s-BqFcu6fHOrDf-140" vertex="1">
          <mxGeometry x="408" y="122" width="25" height="25" as="geometry" />
        </mxCell>
        <mxCell id="UOlVn4s-BqFcu6fHOrDf-114" value="" style="ellipse;whiteSpace=wrap;html=1;aspect=fixed;fontSize=20;fillColor=#ffe6cc;strokeColor=#d79b00;" parent="UOlVn4s-BqFcu6fHOrDf-140" vertex="1">
          <mxGeometry x="459" y="122" width="25" height="25" as="geometry" />
        </mxCell>
        <mxCell id="UOlVn4s-BqFcu6fHOrDf-115" value="" style="endArrow=none;html=1;rounded=0;" parent="UOlVn4s-BqFcu6fHOrDf-140" target="UOlVn4s-BqFcu6fHOrDf-116" edge="1">
          <mxGeometry width="50" height="50" relative="1" as="geometry">
            <mxPoint x="502" y="131" as="sourcePoint" />
            <mxPoint x="523" y="90" as="targetPoint" />
          </mxGeometry>
        </mxCell>
        <mxCell id="UOlVn4s-BqFcu6fHOrDf-116" value="" style="ellipse;whiteSpace=wrap;html=1;aspect=fixed;fontSize=20;fillColor=#ffe6cc;strokeColor=#d79b00;" parent="UOlVn4s-BqFcu6fHOrDf-140" vertex="1">
          <mxGeometry x="491" y="122" width="25" height="25" as="geometry" />
        </mxCell>
        <mxCell id="UOlVn4s-BqFcu6fHOrDf-117" value="" style="ellipse;whiteSpace=wrap;html=1;aspect=fixed;fontSize=20;fillColor=#ffe6cc;strokeColor=#d79b00;" parent="UOlVn4s-BqFcu6fHOrDf-140" vertex="1">
          <mxGeometry x="551.5" y="122" width="25" height="25" as="geometry" />
        </mxCell>
        <mxCell id="UOlVn4s-BqFcu6fHOrDf-105" value="" style="endArrow=none;html=1;rounded=0;entryX=0.5;entryY=0;entryDx=0;entryDy=0;" parent="UOlVn4s-BqFcu6fHOrDf-140" source="UOlVn4s-BqFcu6fHOrDf-107" target="UOlVn4s-BqFcu6fHOrDf-114" edge="1">
          <mxGeometry width="50" height="50" relative="1" as="geometry">
            <mxPoint x="452" y="71" as="sourcePoint" />
            <mxPoint x="482" y="131" as="targetPoint" />
          </mxGeometry>
        </mxCell>
        <mxCell id="UOlVn4s-BqFcu6fHOrDf-118" value="" style="endArrow=none;html=1;rounded=0;fontSize=12;startSize=8;endSize=8;curved=1;entryX=0;entryY=1;entryDx=0;entryDy=0;exitX=0.5;exitY=0;exitDx=0;exitDy=0;" parent="UOlVn4s-BqFcu6fHOrDf-140" source="UOlVn4s-BqFcu6fHOrDf-107" target="UOlVn4s-BqFcu6fHOrDf-111" edge="1">
          <mxGeometry width="50" height="50" relative="1" as="geometry">
            <mxPoint x="480" y="76" as="sourcePoint" />
            <mxPoint x="530" y="26" as="targetPoint" />
          </mxGeometry>
        </mxCell>
        <mxCell id="UOlVn4s-BqFcu6fHOrDf-108" value="" style="endArrow=none;html=1;rounded=0;" parent="UOlVn4s-BqFcu6fHOrDf-140" source="UOlVn4s-BqFcu6fHOrDf-116" target="UOlVn4s-BqFcu6fHOrDf-109" edge="1">
          <mxGeometry width="50" height="50" relative="1" as="geometry">
            <mxPoint x="502" y="131" as="sourcePoint" />
            <mxPoint x="532" y="71" as="targetPoint" />
          </mxGeometry>
        </mxCell>
        <mxCell id="UOlVn4s-BqFcu6fHOrDf-119" value="" style="endArrow=none;html=1;rounded=0;fontSize=12;startSize=8;endSize=8;curved=1;entryX=0;entryY=1;entryDx=0;entryDy=0;exitX=0.5;exitY=0;exitDx=0;exitDy=0;" parent="UOlVn4s-BqFcu6fHOrDf-140" source="UOlVn4s-BqFcu6fHOrDf-113" target="UOlVn4s-BqFcu6fHOrDf-107" edge="1">
          <mxGeometry width="50" height="50" relative="1" as="geometry">
            <mxPoint x="501" y="69" as="sourcePoint" />
            <mxPoint x="551" y="19" as="targetPoint" />
          </mxGeometry>
        </mxCell>
        <mxCell id="eSEaWndHcErj430hBIBG-99" value="&lt;font style=&quot;font-size: 18px;&quot;&gt;Input Trees&lt;/font&gt;" style="rounded=0;whiteSpace=wrap;html=1;fillColor=#ffe6cc;strokeColor=#d79b00;direction=south;" parent="1" vertex="1">
          <mxGeometry x="28" y="-967" width="105" height="180" as="geometry" />
        </mxCell>
        <mxCell id="eSEaWndHcErj430hBIBG-100" value="&lt;font style=&quot;font-size: 18px;&quot;&gt;Distance Matrices&lt;/font&gt;" style="rounded=0;whiteSpace=wrap;html=1;fillColor=#ffe6cc;strokeColor=#d79b00;direction=north;" parent="1" vertex="1">
          <mxGeometry x="28" y="-670" width="105" height="180" as="geometry" />
        </mxCell>
        <mxCell id="eSEaWndHcErj430hBIBG-101" value="&lt;font style=&quot;font-size: 18px;&quot;&gt;Super Graph&lt;br&gt;&lt;/font&gt;" style="rounded=0;whiteSpace=wrap;html=1;fillColor=#ffe6cc;strokeColor=#d79b00;direction=north;" parent="1" vertex="1">
          <mxGeometry x="28" y="-372" width="105" height="180" as="geometry" />
        </mxCell>
        <mxCell id="eSEaWndHcErj430hBIBG-106" value="&lt;font style=&quot;font-size: 18px;&quot;&gt;Matrix of Super Graph&lt;br&gt;&lt;/font&gt;" style="rounded=0;whiteSpace=wrap;html=1;direction=north;fillColor=#ffe6cc;strokeColor=#d79b00;" parent="1" vertex="1">
          <mxGeometry x="28" y="-75" width="105" height="180" as="geometry" />
        </mxCell>
        <mxCell id="eSEaWndHcErj430hBIBG-129" value="&lt;font style=&quot;font-size: 18px;&quot;&gt;Minimum Spanning Tree (MST)&lt;br&gt;&lt;/font&gt;" style="rounded=0;whiteSpace=wrap;html=1;direction=north;fillColor=#ffe6cc;strokeColor=#d79b00;" parent="1" vertex="1">
          <mxGeometry x="28" y="223" width="105" height="180" as="geometry" />
        </mxCell>
        <mxCell id="eSEaWndHcErj430hBIBG-138" value="&lt;font style=&quot;font-size: 18px;&quot;&gt;Consensus Tree with topological and branch length information&lt;br&gt;&lt;/font&gt;" style="rounded=0;whiteSpace=wrap;html=1;direction=north;fillColor=#ffe6cc;strokeColor=#d79b00;" parent="1" vertex="1">
          <mxGeometry x="28" y="520" width="105" height="180" as="geometry" />
        </mxCell>
        <mxCell id="Fvbf834GhWgUttz6UmgZ-3" value="Input Trees" style="rounded=1;whiteSpace=wrap;html=1;fontSize=20;fillColor=#FFE6CC;rotation=-90;" vertex="1" parent="1">
          <mxGeometry x="-23" y="-916" width="200" height="88" as="geometry" />
        </mxCell>
      </root>
    </mxGraphModel>
  </diagram>
  <diagram id="eFK7Y2_jjmnXtTNYS-Mp" name="Page-2">
    <mxGraphModel dx="1415" dy="786" grid="0" gridSize="10" guides="1" tooltips="1" connect="1" arrows="1" fold="1" page="0" pageScale="1" pageWidth="850" pageHeight="1100" math="0" shadow="0">
      <root>
        <mxCell id="0" />
        <mxCell id="1" parent="0" />
      </root>
    </mxGraphModel>
  </diagram>
</mxfile>
